<?xml version="1.0" encoding="UTF-8" standalone="no"?>
<!-- Created with Inkscape (http://www.inkscape.org/) -->

<svg
   xmlns:dc="http://purl.org/dc/elements/1.1/"
   xmlns:cc="http://creativecommons.org/ns#"
   xmlns:rdf="http://www.w3.org/1999/02/22-rdf-syntax-ns#"
   xmlns:svg="http://www.w3.org/2000/svg"
   xmlns="http://www.w3.org/2000/svg"
   xmlns:sodipodi="http://sodipodi.sourceforge.net/DTD/sodipodi-0.dtd"
   xmlns:inkscape="http://www.inkscape.org/namespaces/inkscape"
   version="1.1"
   id="svg850"
   width="1231.6174"
   height="268.95587"
   viewBox="0 0 1231.6174 268.95587"
   sodipodi:docname="waves-invert.svg"
   inkscape:version="0.92.4 5da689c313, 2019-01-14">
  <metadata
     id="metadata856">
    <rdf:RDF>
      <cc:Work
         rdf:about="">
        <dc:format>image/svg+xml</dc:format>
        <dc:type
           rdf:resource="http://purl.org/dc/dcmitype/StillImage" />
        <dc:title />
      </cc:Work>
    </rdf:RDF>
  </metadata>
  <defs
     id="defs854" />
  <sodipodi:namedview
     pagecolor="#ffffff"
     bordercolor="#666666"
     borderopacity="1"
     objecttolerance="10"
     gridtolerance="10"
     guidetolerance="10"
     inkscape:pageopacity="0"
     inkscape:pageshadow="2"
     inkscape:window-width="1920"
     inkscape:window-height="1080"
     id="namedview852"
     showgrid="false"
     fit-margin-top="0"
     fit-margin-left="0"
     fit-margin-right="0"
     fit-margin-bottom="0"
     inkscape:zoom="0.19161794"
     inkscape:cx="-532.30925"
     inkscape:cy="134.47794"
     inkscape:window-x="0"
     inkscape:window-y="0"
     inkscape:window-maximized="0"
     inkscape:current-layer="svg850"
     inkscape:snap-page="true" />
  <path
     style="fill:#f7f7f7;fill-opacity:1;stroke-width:1.33333337"
     d="m 337.45687,261.111 c 1.68669,-18.60112 -22.24198,-27.93222 -49.68647,-19.37547 -16.11238,5.02357 -22.89306,1.57853 -19.45818,-9.88607 3.71222,-12.39026 25.49419,-14.88949 25.49419,-2.92516 0,2.43295 4.65581,1.8727 7.12668,-0.85758 9.41028,-10.39824 -7.35793,-20.38151 -25.34499,-15.08963 -12.52096,3.68372 -18.65018,3.75969 -19.7657,0.24497 -1.79043,-5.64113 5.63428,-12.05036 13.95964,-12.05036 2.30293,0 4.42472,-0.82518 4.82869,-1.87792 1.19745,-3.12053 7.89681,-5.12994 13.78593,-4.13498 5.31342,0.89769 5.40975,0.84356 5.40975,-3.03998 0,-7.79724 -6.81387,-9.69484 -20.07479,-5.59064 -10.9098,3.37654 -15.92521,2.4219 -15.92521,-3.03121 0,-7.70969 10.95173,-14.78344 20.79849,-13.43379 3.83902,0.52619 6.47291,0.10707 8.76484,-1.39464 17.38912,-11.39378 43.91987,3.08666 37.86338,20.66576 -1.93993,5.63071 -0.72249,6.67163 4.52095,3.86542 1.77182,-0.94826 2.88668,-0.76588 4.0756,0.66666 2.51797,3.03399 9.73465,2.45938 12.91104,-1.02801 12.40572,-13.62033 5.59333,-35.66667 -11.0211,-35.66667 -2.29853,0 -3.24653,-0.73834 -3.24653,-2.52854 0,-30.88551 -83.73911,-7.00088 -95.60354,27.26868 -5.84057,16.86994 -21.52897,25.76376 -30.18227,17.11042 -9.9002,-9.90017 -2.9433,-25.50121 9.7485,-21.86126 5.329,1.52834 5.6564,-2.52212 0.5299,-6.55467 -15.6412,-12.30339 -33.3931,-1.99852 -27.9624,16.23204 0.9899,3.32319 0.7755,3.66667 -2.2889,3.66667 -6.9043,0 -9.1773,5.51925 -8.2122,19.9408 1.1083,16.56073 0.6718,16.43194 13.5312,3.99281 4.1318,-3.99683 6.8302,-5.97344 5.9963,-4.39248 -1.6017,3.03691 -12.1025,13.95583 -16.1431,16.786 -3.0671,2.14825 -5.0656,10.34329 -2.5194,10.33091 1.9625,-0.009 13.9743,-11.16198 20.8714,-19.37819 4.4322,-5.27985 4.4322,-5.27985 2.1907,-0.73692 -3.0999,6.28276 -13.4117,17.02559 -20.1112,20.95172 -3.9531,2.31667 -6.5935,5.29687 -9.0559,10.22108 -4.1463,8.29159 -8.3529,13.24492 -14.357,16.90549 -6.814,4.1543 -7.3036,3.21598 -0.8691,-1.66557 20.4722,-15.53131 24.591,-46.80204 9.1964,-69.82133 -32.8139,-49.06624 -97.811997,-63.06611 -156.335997,-33.67303 -10.24330034,5.14459 -10.24330034,5.14459 -10.13050034,1.17499 0.1,-3.50212 0.59930004,-3.98164 4.24330004,-4.07174 2.2718,-0.0561 7.7305003,-1.85401 12.1305003,-3.9952 8,-3.89305 8,-3.89305 -4.3334,-3.48724 -9.0830003,0.29888 -12.33330034,-0.0259 -12.33330034,-1.2322 0,-2.50429 6.66630004,-3.43752 21.68020034,-3.03508 12.0467,0.32291 31.5562,-2.27342 33.7779,-4.49518 4.0614,-4.0614 -37.8051,-8.99095 -51.1248003,-6.01964 -3.3672,0.75114 -4.33330004,0.5282 -4.33330004,-1 0,-1.08167 0.45,-1.96836 1.00000004,-1.97043 0.55,-0.003 6.2523,-0.64792 12.6717003,-1.43524 15.3987,-1.8886 27.916,-0.0331 40.3283,5.97803 8.9766,4.34728 28.6667,6.85252 28.6667,3.64737 0,-1.37921 -10.6417,-11.28643 -15.0596,-14.0202 -10.8762,-6.73011 -40.6769,-9.59471 -59.2738003,-5.69769 -6.6142,1.38601 -8.33330004,1.40306 -8.33330004,0.0827 0,-2.26279 11.34820034,-4.59964 26.69200034,-5.49651 24.6467,-1.44061 49.3494,7.89859 56.6245,21.40764 2.8797,5.34726 15.3724,9.04335 15.3371,4.53767 -0.2022,-25.87563 -44.3957,-43.002443 -87.1264,-33.76512 -9.3763003,2.02691 -13.2626003,2.05612 -11.29140034,0.0849 C 22.351173,85.515897 96.458773,108.79451 101.32367,138.76319 c 0.7924,4.88107 4.8074,7.7419 10.8653,7.7419 2.7146,0 1.2074,-12.8615 -2.4857,-21.21031 C 98.217673,99.329547 47.697973,81.701827 11.409973,90.997527 c -8.8033003,2.25509 -12.7967003,2.25624 -10.54350034,0.003 2.35730004,-2.35732 22.78560034,-5.80897 34.43560034,-5.81842 45.13,-0.0366 82.385397,26.591613 82.488497,58.958463 0.023,7.18836 9.8769,12.49543 12.2715,6.60904 C 150.18047,101.29408 68.088973,50.481127 6.9836727,74.566617 c -5.1456,2.0282 -6.51060004,2.18387 -6.51060004,0.74251 0,-2.22497 18.11770034,-8.12398 31.33330034,-10.20193 25.8162,-4.05919 61.0246,8.15419 83.695797,29.03306 5.048,4.64894 6.9761,5.66326 9.3333,4.9099 55.8806,-17.85952 109.60694,12.145113 113.92262,63.622543 0.74091,8.8376 0.74091,8.8376 6.5418,2.78347 11.11588,-11.60118 10.9772,-36.78584 -0.23067,-41.89248 -4.6584,-2.12251 -4.03122,-3.79972 1.07052,-2.8628 6.28338,1.1539 9.93298,3.83405 12.91684,9.48573 2.63198,4.98513 2.63198,4.98513 2.6909,0.58559 0.17724,-13.23222 -11.3048,-18.93795 -23.2744,-11.56567 -6.65316,4.09779 -7.98581,4.10064 -12.06061,0.0259 -6.1707,-6.17078 -1.2115,-19.394013 7.27349,-19.394013 1.85768,0 3.35428,-1.44305 4.60765,-4.4428 3.92059,-9.38327 12.67212,-13.24133 20.85391,-9.19331 5.35506,2.64948 5.35506,2.64948 6.19772,-0.85721 2.20569,-9.17886 9.51333,-19.97341 16.71672,-24.69325 2.52754,-1.65611 3.77557,-4.13484 4.8994,-9.73076 2.82884,-14.08583 9.3638,-21.69656 22.14452,-25.78987 2.91471,-0.9335 7.92056,-4.24485 11.12412,-7.35856 35.02197,-34.03964 105.34492,-15.0634801 89.01479,24.02003 -5.08551,12.17131 -20.77171,10.17163 -20.77171,-2.64799 0,-7.4647 -2.07468,-10.31485 -6.75937,-9.28592 -2.37559,0.52177 -3.9073,0.31199 -3.9073,-0.53512 0,-3.81024 -7.97849,-9.48524 -13.3353,-9.48524 -10.17456,0 -15.47048,6.23814 -7.94296,9.35614 8.59414,3.55981 13.81577,13.01764 9.96848,18.05568 -1.85444,2.42841 -1.92947,2.33566 -1.2152,-1.50247 2.10734,-11.32402 -16.7357,-20.40423 -29.17828,-14.06063 -2.71359,1.38346 -4.59974,1.97488 -4.19147,1.31428 1.22239,-1.97786 10.91209,-6.49634 13.93115,-6.49634 1.54513,0 4.78988,-2.1 7.21056,-4.66666 6.44553,-6.83427 16.18542,-6.83427 23.01969,0 2.56667,2.56666 5.67316,4.66666 6.90332,4.66666 5.14543,0 8.16335,3.87276 8.16335,10.47561 0,14.97564 15.10173,12.8363 16.90565,-2.39488 4.10128,-34.62894011 -54.13377,-44.1774801 -86.20024,-14.13388 -4.409,4.13086 -9.51572,7.5219 -12.70541,8.43682 -10.10582,2.89874 -17.69835,13.24771 -19.96107,27.20785 -0.51882,3.20089 -1.6792,5.20446 -3.31487,5.7236 -4.07985,1.29489 -12.00976,11.01159 -16.17897,19.82446 -4.90231,10.36249 -4.89828,10.41434 1.28617,16.53728 8.25463,8.172543 9.84075,22.892923 4.10519,38.099263 -2.2344,5.92394 -2.24916,6.37305 -0.18328,5.57686 5.57934,-2.15028 18.82741,-4.64866 24.7454,-4.66661 6.01397,-0.0183 6.88968,-0.46403 11.74348,-5.97824 8.17759,-9.29023 16.95264,-10.59999 25.98617,-3.87871 3.14231,2.33799 5.25187,2.94123 8.21398,2.3488 7.50141,-1.50028 13.44282,1.63315 14.39569,7.59212 1.00803,6.3038 1.89003,6.45972 6.37692,1.12735 5.6828,-6.75361 3.67723,-19.3178 -3.24581,-20.33389 -1.11515,-0.16367 -4.27367,-2.01079 -7.01894,-4.10471 -6.7479,-5.14687 -18.36068,-4.45838 -38.2834,2.26975 -15.46525,5.22278 -20.2092,5.2263 -23.62215,0.0175 -5.96856,-9.10918 5.00106,-16.546783 24.04461,-16.302693 15.15797,0.194323 18.24421,-1.06486 18.24421,-7.4436 0,-5.5708 -2.70285,-7.33334 -11.24568,-7.33334 -6.82852,0 -6.83884,-0.0132 -4.12816,-5.25499 1.84212,-3.56228 7.6956,-6.71383 12.5728,-6.76927 1.17391,-0.0134 4.77467,-1.81335 8.00168,-4 7.00589,-4.74726 13.28092,-5.14219 20.79936,-1.30907 2.87679,1.46666 6.63092,2.66666 8.34253,2.66666 11.08824,0 12.80751,15.74727 2.74852,25.1745 -4.42438,4.1465 -4.42438,4.1465 -0.58078,4.15267 2.11398,0.003 4.81398,-1.1026 6,-2.45776 1.18602,-1.35516 4.34441,-3.18123 7.01864,-4.05793 9.19414,-3.01416 10.29854,-15.521 2.0397,-23.09868 -2.3294,-2.13728 -6.46636,-5.97237 -9.19322,-8.52242 -12.09631,-11.31194 -29.26024,-13.04055 -47.00992,-4.73447 -10.60208,4.96131 -10.64514,4.94613 -9.40647,-3.31394 2.3056,-15.37479 20.35155,-20.26417 27.24587,-7.38202 1.02058,1.90699 3.22426,2.72266 8.54866,3.16421 8.11366,0.67284 17.00499,4.74135 22.91314,10.48461 2.2,2.1386 5.93916,5.44073 8.30925,7.33806 2.43732,1.95115 4.96943,5.65319 5.82901,8.5222 1.51976,5.07251 1.51976,5.07251 12.52142,-0.0831 41.29045,-19.34936 95.66772,-9.81229 121.51541,21.31221 2.84175,3.421893 2.84175,3.421893 10,1.18919 54.38999,-16.9647 110.17314,16.839323 110.52871,66.979283 0.0541,7.63103 10.39148,0.21756 12.979,-9.30791 3.64646,-13.42376 0.0309,-29.27246 -7.45405,-32.67493 -4.32039,-1.96392 -3.49595,-3.4894 1.43792,-2.66064 6.192,1.04011 10.55527,4.59173 13.99369,11.39064 2.65951,5.25871 2.93222,5.47299 2.44298,1.91951 -0.3029,-2.2 -0.60006,-5.30396 -0.66036,-6.8977 -0.38352,-10.13617 -12.5889,-14.05939 -23.62271,-7.59314 -5.04579,2.95702 -6.50341,3.27428 -9.2642,2.01638 -9.54899,-4.35085 -5.17725,-21.525573 5.4792,-21.525573 2.04181,0 3.26041,-1.00178 3.79121,-3.11669 2.30124,-9.16887 11.89646,-14.42762 20.08339,-11.0069 6.37329,2.66293 6.51737,2.6043 8.28137,-3.37001 2.27318,-7.69876 9.38199,-17.9912 14.52005,-21.02272 2.86197,-1.68861 4.82561,-4.05539 5.32089,-6.41331 2.75241,-13.1036 4.06163,-15.95782 10.08065,-21.97685 4.16618,-4.16617 7.83888,-6.5471 11.01976,-7.14383 2.98354,-0.55972 7.65,-3.41442 12.45559,-7.61968 39.02748,-34.15205 103.87544,-16.7706301 89.65234,24.02982 -4.48723,12.87204 -21.24051,8.88454 -21.24051,-5.05552 0,-5.36995 -2.89676,-8.29868 -7.1518,-7.23073 -2.53348,0.63586 -3.45831,0.20509 -4.13463,-1.92581 -2.43068,-7.65838 -15.82219,-10.99415 -21.79549,-5.42917 -3.85942,3.5956 -3.68786,4.63903 1.08805,6.61727 9.07304,3.75818 14.38321,13.81396 9.9068,18.76034 -1.92919,2.13173 -1.74148,2.42023 2.48147,3.81393 2.51269,0.82927 8.35718,4.78873 12.98776,8.79881 4.63057,4.01007 8.80277,7.29105 9.27157,7.29105 1.13362,0 5.34627,8.91409 5.34627,11.31285 0,1.38534 2.57759,0.67634 9.66667,-2.65893 42.00378,-19.76191 86.03917,-13.5426 120.29589,16.98991 7.18079,6.40013 7.18079,6.40013 17.60911,3.41671 15.35361,-4.39249 38.62197,-4.30704 52.36137,0.19229 29.7941,9.756923 53.2959,39.425373 53.4017,67.413833 0.03,8 0.03,8 6.0979,1.7 11.9497,-12.40708 12.0421,-37.08018 0.1604,-42.83463 -6.6833,-3.23683 -1.0441,-4.29871 6.084,-1.14563 4.4771,1.98044 6.5579,3.98426 8.7627,8.43871 2.652,5.35768 2.8916,5.53428 2.8926,2.13205 0,-13.6093 -13.1204,-21.95887 -22.8192,-14.51746 -7.1721,5.50281 -13.2222,4.5151 -15.689,-2.56132 -2.2515,-6.45854 1.4878,-13.46126 8.0543,-15.08385 3.9337,-0.971993 5.2583,-2.172213 6.8394,-6.197303 3.5641,-9.07335 15.801,-13.1293 22.1839,-7.35288 3.2759,2.96465 3.1403,3.08024 5.3354,-4.54706 2.1834,-7.58653 7.921,-15.94507 14.5482,-21.19391 4.2407,-3.35875 5.3259,-5.19393 6.0063,-10.15769 1.776,-12.95787 13.1752,-26.01236 22.714,-26.01236 1.0698,0 5.4437,-3.02291 9.7198,-6.71758 30.9236,-26.7192201 90.3243,-22.9500901 89.6381,5.68779 -0.1261,5.26281 -0.2106,5.39196 -1.1103,1.69646 -7.0572,-28.9885901 -60.5396,-31.4879401 -87.5891,-4.09323 -3.2261,3.26721 -7.7955,6.25977 -11.0446,7.23324 -9.7777,2.92946 -17.798,12.87715 -19.6327,24.35077 -0.7554,4.72395 -2.2153,6.95206 -8.0486,12.28335 -13.0097,11.8901 -19.1862,29.66097 -11.191,32.19853 7.2272,2.293833 10.3529,22.182573 5.66,36.014843 -3.2403,9.55057 -3.4297,9.22986 3.8848,6.57688 3.2311,-1.17191 10.7859,-2.46048 16.7885,-2.86347 10.5145,-0.70591 10.9727,-0.87471 12.5212,-4.61304 3.8934,-9.39953 21.7394,-12.63008 28.5004,-5.15924 1.8729,2.06949 3.5622,2.45191 8.5332,1.93163 8.1364,-0.85159 12.4073,1.48069 14.1616,7.7334 2.5878,9.22334 11.1496,-1.63768 9.2544,-11.73971 -0.8397,-4.47619 -6.2912,-9.89188 -8.1181,-8.06492 -0.4493,0.44932 -2.8515,-0.96941 -5.3381,-3.15272 -6.5774,-5.77497 -16.2509,-5.54487 -34.9089,0.83035 -19.7363,6.74366 -28.1862,6.14396 -28.1862,-2.00044 0,-9.50724 8.18,-13.620273 26.4297,-13.28926 21.159,0.38378 26.4203,-13.915693 5.5545,-15.096273 -8.6198,-0.48771 -1.1626,-11.74736 7.7803,-11.74736 2.2429,0 4.4542,-0.60857 4.9139,-1.35239 3.6409,-5.89102 17.5014,-8.15387 24.3538,-3.97596 2.4011,1.46393 5.802,2.66168 7.5576,2.66168 11.8369,0 14.8883,13.3752 5.357,23.4813 -5.472,5.80207 -5.485,5.85204 -1.5125,5.85204 1.7054,0 4.51,-1.5 6.2324,-3.33333 1.7223,-1.83334 4.4339,-3.33334 6.0257,-3.33334 4.3901,0 7.3076,-4.14234 7.3076,-10.37558 0,-5.6025 -2.2518,-12.29109 -4.138,-12.29109 -0.5738,0 -4.6106,-3.30264 -8.9705,-7.3392 -14.488,-13.41331 -38.1476,-15.23776 -52.9105,-4.08006 -3.9306,2.97074 -4.6477,2.56595 -4.6477,-2.62356 0,-17.4669 16.3204,-23.845 26.9457,-10.53055 1.6373,2.05179 4.3165,3.06604 9.5166,3.60274 8.8907,0.9176 14.2302,3.55368 22.8711,11.29131 3.6666,3.28339 7.9979,7.14936 9.6249,8.59105 1.6271,1.44168 3.3398,4.65466 3.8061,7.13994 0.8477,4.51869 0.8477,4.51869 7.375,1.21105 8.6556,-4.38614 8.8719,-1.17591 0.2293,3.40395 -3.8336,2.03148 -6.566,4.49341 -6.9962,6.30364 -1.0344,4.35325 -4.7659,8.16471 -8.9948,9.18761 -2.0411,0.49369 -5.4291,2.0995 -7.5291,3.568453 -2.0999,1.46896 -5.6301,2.61931 -7.8448,2.55634 -5.2453,-0.14914 -13.6416,7.328 -11.6604,10.38395 1.1066,1.7069 2.4221,1.35723 8.9766,-2.38595 10.0435,-5.73569 33.4796,-17.191213 37.5044,-18.332113 6.2148,-1.76164 2.1539,2.47086 -4.5685,4.76167 -8.1692,2.78381 -26.8519,12.118933 -31.0321,15.505733 -7.3937,5.99029 0.071,11.21528 9.5632,6.69406 11.264,-5.36501 27.9035,-11.66402 28.7021,-10.86541 1.1296,1.12953 -1.5776,2.8892 -7.1557,4.65132 -4.8871,1.54381 -27.2107,11.40353 -28.3116,12.50448 -1.5598,1.55983 -1.6277,7.71893 -0.078,7.04067 6.8329,-2.9898 29.096,-11.36632 32.1863,-12.11015 8.6429,-2.08028 2.1819,2.30636 -8.5038,5.77359 -16.8126,5.45522 -25.5955,9.60282 -29.0785,13.73184 -1.7152,2.0333 -3.9786,3.69693 -5.0298,3.69693 -2.146,0 -13.8517,10.33197 -13.8517,12.22609 0,4.65763 3.4807,4.58222 9.9732,-0.21605 12.5429,-9.26981 33.8238,-19.48729 45.8515,-22.01435 8.764,-1.84134 3.6569,2.25784 -6.5462,5.25432 -20.6881,6.07572 -46.0045,21.69788 -43.6251,26.92007 0.81,1.77776 1.8194,3.06099 2.243,2.8516 0.4237,-0.20939 6.1703,-3.15531 12.7703,-6.54648 11.8034,-6.06477 33.6212,-14.4752 37.5506,-14.4752 5.0128,0 0.092,3.26591 -8.9388,5.93297 -22.6398,6.68598 -40.7168,16.30192 -41.5696,22.11268 -0.7168,4.88344 -1.7401,5.06044 11.3038,-1.95508 18.8595,-10.14342 40.9873,-17.85834 40.9873,-14.29034 0,0.78668 -2.55,2.06356 -5.6667,2.83752 -14.3105,3.55372 -47.1793,19.05954 -48.3727,22.81982 -0.4087,1.28744 -2.1998,4.48762 -3.9804,7.11148 -3.9515,5.82279 -3.2745,5.50311 33.3531,-15.74893 13.2834,-7.70727 24.2334,-13.27615 24.5226,-12.47156 2.6203,7.28883 -70.8177,42.44292 -97.0553,46.45944 -10.363,1.5864 -10.363,1.5864 -7.7012,6.44595 3.4413,6.28258 2.2676,11.285 -3.4685,14.78242 -5.3787,3.27951 -8.9642,3.38363 -8.9642,0.26031 0,-11.29069 -18.6966,-10.60061 -20.8295,0.76879 -1.3378,7.13129 1.7282,9.3233 9.8222,7.02222 11.665,-3.3163 22.2901,-5.3652 27.9681,-5.39324 10.92,-0.0539 51.414,-14.86292 80.8689,-29.57446 10.1731,-5.08103 18.8231,-8.91163 19.2223,-8.51244 2.8367,2.83676 -59.3039,30.7594 -80.2208,36.04684 -11.8965,3.00725 -11.8965,3.00725 -6.6972,4.69484 2.8596,0.92817 6.911,2.88912 9.0032,4.35766 4.4875,3.14996 0.9874,4.33695 48.604,-16.48336 16.3577,-7.15237 29.5164,-12.32981 29.2416,-11.50541 -0.5513,1.65397 -15.6442,8.57129 -48.7737,22.35379 -25.3759,10.55684 -23.2756,9.2011 -21.1952,13.68149 2.0873,4.49493 0.8879,4.66279 18.5897,-2.60159 32.7362,-13.43416 51.7297,-20.25852 51.7297,-18.58646 0,0.97672 -14.1764,6.84545 -34,14.07532 -34,12.40014 -34,12.40014 -34,16.73202 0,2.38254 -1.1529,5.74835 -2.5619,7.4796 -2.562,3.14771 -2.562,3.14771 -1.1254,-2.26618 5.3407,-20.12666 -23.4095,-32.39716 -51.9985,-22.19283 -12.1336,4.33088 -17.6475,2.11252 -17.6475,-7.09991 0,-14.02072 22.5405,-19.93554 25.8421,-6.78118 0.9944,3.96206 5.3001,3.36985 8.2517,-1.13496 7.1676,-10.93918 -10.3505,-19.7966 -27.6365,-13.97338 -10.8911,3.66895 -17.6505,3.13079 -18.1846,-1.4478 -0.5279,-4.52492 4.5645,-9.16713 11.2027,-10.21241 2.8552,-0.44957 6.8873,-2.22581 8.9602,-3.9472 4.0179,-3.33652 8.0276,-3.90151 13.344,-1.88024 2.7579,1.04857 3.4012,0.81112 3.9994,-1.47643 2.3976,-9.16841 -6.0931,-12.49508 -19.9473,-7.81537 -13.1322,4.43584 -18.6846,1.50299 -14.2987,-7.5528 2.7496,-5.67737 8.6734,-8.60452 18.221,-9.00359 4.5353,-0.18957 10.946,-1.3922 14.246,-2.6725 20.6622,-8.0164 40.0993,6.81981 32.6713,24.93782 -1.1327,2.76291 3.1272,3.3348 5.6972,0.76484 1.2024,-1.20244 2.1449,-1.04685 4.0383,0.66667 6.0754,5.49817 14.8071,0.58175 17.6379,-9.93111 3.6073,-13.39632 -2.0526,-24.6171 -13.1692,-26.10816 -3.6469,-0.48914 -5.5422,-1.41288 -5.5422,-2.70113 0,-13.35872 -38.5887,-18.51623 -60.9013,-8.13967 -7.852,3.65162 -34.5649,30.31603 -35.7425,35.6777 -3.1503,14.3432 -20.119,24.46534 -29.1305,17.37688 -10.8092,-8.50256 -3.6673,-27.02676 8.751,-22.69771 5.1983,1.81211 5.0249,1.84351 5.0142,-0.90831 -0.02,-5.04753 -13.8332,-11.59893 -21.6659,-10.27561 -8.874,1.49925 -12.1472,6.1698 -11.2274,16.02029 0.7733,8.28114 0.7733,8.28114 -3.0896,9.05372 -6.3703,1.27406 -8.31854,9.31859 -6.1033,25.2016 1.3743,9.85435 0.3547,10.09143 15.2625,-3.54877 3.3776,-3.09033 4.141,-3.41884 3.0594,-1.31647 -0.7927,1.54078 -5.1388,6.2247 -9.658,10.40871 -7.3936,6.84521 -12.21921,15.58373 -9.89117,17.91179 0.88757,0.8875 24.65587,-23.42923 24.65587,-25.22472 0,-0.92124 0.3443,-1.33074 0.765,-0.91 2.5578,2.55781 -13.4602,20.97241 -22.2352,25.5619 -3.05556,1.59814 -5.37194,4.08428 -6.36558,6.83211 -3.17002,8.76657 -18.25961,24.30117 -20.97116,21.58964 -0.36666,-0.36667 1.43711,-1.96688 4.00839,-3.55601 26.03155,-16.08835 25.32625,-55.9331 -1.48049,-83.63487 -44.47442,-45.95948 -99.32359,-48.09296 -169.72097,-6.60169 -37.91089,22.34417 -64.14971,33.6815 -85.70864,37.0332 -10.02124,1.55796 -10.02124,1.55796 -7.36936,6.64573 3.53956,6.79079 2.02527,11.60412 -4.6994,14.93748 -5.84615,2.89788 -8.88927,2.16088 -8.88927,-2.15285 0,-4.42538 -2.44957,-6.30851 -8.20606,-6.30851 -6.23022,0 -11.79394,4.98352 -11.79394,10.56401 0,6.93987 2.44779,7.43503 17.64092,3.56856 7.53083,-1.9165 16.13758,-3.48036 19.12612,-3.47524 13.94963,0.024 55.19766,-15.72689 96.76309,-36.94964 73.03056,-37.28841 134.00831,-34.338 162.18679,7.84742 12.89681,19.30754 5.93285,52.16302 -12.78616,60.32418 -2.26272,0.98651 -1.06964,-0.9748 5.19862,-8.54596 16.56159,-20.00401 15.29355,-39.21764 -3.85877,-58.46876 -32.94416,-33.11412 -83.64464,-31.79188 -155.69551,4.06044 -35.87771,17.85267 -54.59251,25.6656 -72.1723,30.13003 -9.33202,2.36991 -9.33202,2.36991 0.3814,6.91097 5.3424,2.49759 9.64676,4.87698 9.56527,5.28752 -1.69385,8.53348 3.29707,8.83979 21.74093,1.33435 100.99662,-41.09897 135.12391,-48.32283 168.78713,-35.72781 16.60396,6.21234 26.71205,23.03306 23.24181,38.67634 -1.18788,5.35478 -1.12968,5.59352 0.7631,3.13026 22.32372,-29.05236 -2.72988,-56.02166 -53.5491,-57.64366 -33.33437,-1.06394 -51.34261,3.25516 -96.28372,23.09278 -32.52931,14.35888 -61.77767,26.26726 -62.56982,25.47513 -0.52398,-0.52399 65.11963,-29.49888 91.57721,-40.42189 82.75255,-34.16443 167.71537,7.51474 117.56009,57.67002 -7.72769,7.72768 -8.63885,7.34923 -4.07754,-1.69361 15.10552,-29.94689 -13.05482,-54.52791 -57.13842,-49.87585 -26.07183,2.75132 -34.15383,5.07584 -96.40113,27.72657 -23.10001,8.40569 -43.65001,15.87895 -45.66667,16.60723 -2.64298,0.95445 -3.66667,2.23685 -3.66667,4.59326 0,3.30656 -3.73581,11.84531 -4.74217,10.83895 -0.30006,-0.30005 0.0523,-2.60581 0.78284,-5.12391 5.62688,-19.39317 -21.55247,-31.04196 -50.84072,-21.7898 -15.45604,4.88256 -21.68455,1.24063 -18.37531,-10.74444 3.19273,-11.56316 21.27772,-13.9851 24.98647,-3.3462 2.07468,5.95143 9.52222,2.43208 9.52222,-4.49974 0,-10.83056 -12.67982,-15.35918 -28.28524,-10.10208 -10.34553,3.48516 -15.60891,3.67597 -17.82433,0.64621 -3.73686,-5.11045 3.90073,-12.74231 12.75187,-12.74231 2.30293,0 4.42472,-0.82518 4.82869,-1.87792 1.19745,-3.12053 7.89681,-5.12994 13.78593,-4.13498 5.33534,0.9014 5.40975,0.85837 5.40975,-3.12763 0,-8.17267 -6.38044,-9.84336 -20.29613,-5.31448 -7.31983,2.38225 -9.58065,2.63544 -12.33334,1.38124 -10.35407,-4.71763 6.56994,-21.02935 18.50655,-17.83701 2.84425,0.76068 5.38759,0.237 9.86989,-2.03224 19.50827,-9.87634 42.92504,4.25142 35.70164,21.53945 -2.20794,5.28435 -0.6701,6.35501 4.4949,3.12943 2.10134,-1.31232 3.03541,-1.18991 5.08689,0.66666 6.20664,5.61692 15.99759,-0.71572 17.54104,-11.34529 2.05497,-14.1524 -2.941,-23.82336 -12.61032,-24.41041 -4.16032,-0.25259 -5.35132,-1.07254 -7.77059,-5.34968 -7.0409,-12.44796 -38.86072,-15.51248 -59.43674,-5.72427 -9.67018,4.6002 -31.88814,27.77761 -37.28029,38.8902 -8.72657,17.98443 -24.53152,22.30459 -31.59912,8.63735 -5.08102,-9.82562 3.44991,-20.89584 13.23564,-17.17532 8.78008,3.33818 4.17206,-5.14511 -5.11002,-9.40746 -13.68576,-6.28452 -22.7079,-0.99608 -22.58154,13.23646 0.0725,8.17637 -0.24942,9.58924 -2.18561,9.58924 -7.29848,0 -9.33977,7.08833 -7.95064,27.60834 0.53261,7.86774 1.16227,7.72792 12.67077,-2.81346 2.87914,-2.63719 5.43866,-4.79488 5.68782,-4.79488 2.40565,0 -10.59608,13.73666 -15.8907,16.78893 -1.15544,0.66608 -2.53489,3.82183 -3.06546,7.01277 -1.18231,7.11063 10.39961,-1.77974 22.32264,-17.13504 2.13884,-2.75454 3.27694,-3.57402 2.77762,-2 -1.99137,6.27752 -12.65576,17.70675 -22.01117,23.5898 -2.69111,1.69228 -5.88504,5.17687 -7.09761,7.74354 -3.75395,7.94596 -8.6783,14.30549 -13.8549,17.89289 -7.94114,5.50321 -7.45448,4.04099 1.62847,-4.89289 27.36881,-26.91966 15.97629,-69.41086 -25.86759,-96.47954 -43.03997,-27.84241 -89.03187,-25.01866 -146.6635,9.00463 -39.60552,23.38144 -67.93958,35.69021 -89.33528,38.80867 -10.37381,1.512 -10.37381,1.512 -7.81191,4.76893 4.94767,6.28993 2.82278,14.94923 -4.27557,17.42373 -6.08515,2.12128 -7.82919,1.83599 -7.82919,-1.28074 0,-8.37606 -10.17,-11.1969 -16.72726,-4.63962 -9.21,9.20999 -3.32468,15.64898 10.60417,11.60178 5.32975,-1.54863 14.1378,-3.21311 19.57344,-3.69884 20.57675,-1.83876 60.42686,-16.95031 103.12034,-39.1042 65.59801,-34.0392 120.66737,-32.84947 154.014,3.32736 19.00411,20.61701 14.07223,54.80444 -9.74153,67.52761 -1.56374,0.83545 0.15685,-1.77057 3.82352,-5.7912 15.17623,-16.64121 18.59509,-31.13596 10.99449,-46.61272 -22.0074,-44.81269 -90.2998,-51.63009 -158.91798,-15.86425 -36.76249,19.16169 -58.32505,28.3984 -79.40985,34.01658 -8.10472,2.15956 -10.57367,3.27176 -8.66667,3.90412 1.46667,0.48636 5.66667,2.39963 9.33334,4.2517 7.49289,3.78472 2.38653,5.58061 75.84425,-26.67422 47.13128,-20.69504 61.30391,-24.27341 91.67288,-23.14598 57.35475,2.12924 83.23209,33.15336 55.08328,66.03889 -7.58113,8.85684 -13.92352,12.93725 -9.55588,6.14781 18.21826,-28.31997 -3.64353,-54.63518 -45.04453,-54.22052 -26.17636,0.26219 -42.86195,4.69016 -109.33334,29.01459 -44.43181,16.25931 -47.73797,17.60868 -46.81261,19.10595 0.89908,1.45473 -1.55991,10.56364 -3.11037,11.52188 -0.63667,0.39348 -0.82862,-2.91242 -0.42656,-7.34644 z m 219.22555,-18.10198 c 17.7968,-40.23262 -53.42699,-62.80976 -122.20934,-38.73897 -5.13333,1.79644 -20.73333,8.32869 -34.66667,14.51611 -13.93333,6.18742 -33.85989,14.7305 -44.28125,18.98462 -18.94793,7.73475 -18.94793,7.73475 -16.96576,11.56784 2.26959,4.3889 2.76228,4.50976 8.04216,1.97291 8.58359,-4.1242 71.3796,-28.00681 89.66538,-34.10157 68.46742,-22.8206 116.91658,-11.1284 114.53341,27.64028 -0.66543,10.82485 0.43109,10.48161 5.88207,-1.84122 z M 278.67044,208.41213 c 22.38784,-7.17225 44.46931,-20.39305 44.46931,-26.62505 0,-3.24892 0,-3.24892 -7,1.2086 -3.85,2.45162 -9.76731,5.67385 -13.14958,7.1605 -4.51253,1.98346 -6.39205,3.66914 -7.06047,6.3323 -0.7541,3.0046 -1.41685,3.46904 -3.85042,2.69826 -7.89144,-2.49938 -10.20347,-2.31048 -14.34198,1.17184 -2.57258,2.1647 -5.74836,3.47979 -8.40318,3.47979 -5.24996,0 -10.19438,3.27009 -10.19438,6.74227 0,3.59768 2.34423,3.3374 19.5307,-2.16851 z m 411.08369,-0.0171 c 22.52073,-7.73445 45.59053,-20.93566 44.69979,-25.5785 -0.24391,-1.27134 -0.48938,-2.7412 -0.54548,-3.2664 -0.0561,-0.52519 -2.76122,0.83978 -6.01136,3.03328 -3.25014,2.19349 -9.20479,5.44557 -13.23255,7.22684 -5.40956,2.39236 -7.43665,4.03865 -7.75733,6.30005 -0.45488,3.20785 -1.35322,3.3494 -10.18959,1.60541 -3.59301,-0.70912 -5.09297,-0.24849 -8,2.45682 -2.17604,2.02504 -5.78375,3.60501 -9.20799,4.03258 -5.95493,0.74358 -9.7032,3.39792 -9.7032,6.87134 0,3.21026 4.58871,2.59344 19.94771,-2.68142 z m 410.12367,0.30435 c 24.1806,-8.15437 45.9287,-20.95911 45.9287,-27.04165 0,-3.41459 0,-3.41459 -4.3334,-0.5229 -2.3833,1.59044 -8.3596,4.79936 -13.2806,7.13095 -7.2737,3.44631 -9.226,5.05024 -10.4376,8.57515 -1.4115,4.10669 -1.6414,4.23004 -4.3494,2.33333 -4.1411,-2.90059 -9.5099,-2.46104 -13.8301,1.13225 -2.0765,1.72716 -6.3601,3.47262 -9.5394,3.88704 -5.568,0.72583 -9.4283,3.69042 -9.5205,7.31146 -0.069,2.71564 5.2944,1.93846 19.3623,-2.80564 z m -374.96218,-5.10233 c 5.22478,-3.26812 7.03346,-5.08272 6.04818,-6.068 -0.9853,-0.9853 -0.67075,-2.52934 1.05182,-5.16327 2.72516,-4.16697 2.34772,-4.0408 -7.15178,2.39068 -3.0851,2.08872 -9.85204,5.83096 -15.03767,8.31611 -9.14325,4.38177 -9.31741,4.55544 -5.75849,5.74174 5.40633,1.80211 12.44006,0.0419 20.84794,-5.21726 z M 309.5174,205.9447 c 8.43957,-4.33045 12.11751,-7.40127 9.94624,-8.30437 -1.23933,-0.5155 -0.97875,-1.6765 1,-4.4554 3.54715,-4.98151 3.39604,-6.45044 -0.32389,-3.1486 -4.30164,3.81817 -15.18238,10.4341 -23.42394,14.24269 -3.98929,1.84353 -6.322,3.58405 -5.33333,3.97941 4.28524,1.71363 12.27192,0.69466 18.13492,-2.31373 z m 824.9557,-1.58362 c 9.8458,-5.91207 9.6731,-5.74334 7.3478,-7.18047 -1.6093,-0.99461 -1.5175,-1.61137 0.586,-3.93568 3.9434,-4.3574 1.7157,-4.40967 -4.1482,-0.0973 -2.9479,2.1679 -9.9772,6.303 -15.6206,9.18909 -10.5262,5.38312 -10.7858,6.54896 -1.4983,6.72629 3.8767,0.074 7.5183,-1.21014 13.3333,-4.70193 z m -805.25862,0.0849 c 14.73177,-4.26911 16.87115,-5.41289 10.68273,-5.71144 -2.6166,-0.12627 -6.71652,-0.34037 -9.11092,-0.47588 -3.08153,-0.17437 -6.4849,1.18907 -11.64886,4.66667 -8.91911,6.00648 -6.60672,6.35542 10.07705,1.52065 z m 407.92528,0.88388 c 15.5538,-4.10416 19.76496,-6.21065 13.25729,-6.63152 -12.62741,-0.81663 -13.27793,-0.68195 -20.41343,4.22641 -8.14421,5.60223 -6.74384,6.07288 7.15614,2.40511 z m 417.94114,-1.79023 c 8.6079,-2.64466 8.6079,-2.64466 4.0673,-4.55381 -6.778,-2.84996 -14.2922,-0.30157 -23.3417,7.91619 -1.8833,1.71018 8.8699,-0.16567 19.2744,-3.36238 z m -936.32093,-4.92352 c 8.2826,-0.56798 16.6138,-16.1469 16.72187,-31.26916 0.3266,-45.70148 -46.13007,-79.270813 -95.54347,-69.039303 -18.5126,3.833193 -20.0312,19.781763 -1.5877,16.674483 38.678,-6.51631 68.0201,6.46757 81.5874,36.10249 5.313,11.60505 4.904,33.02237 -0.5855,30.66157 -9.0923,-3.91025 -15.7659,0.0631 -14.4035,8.57558 0.9022,5.63692 4.6329,9.23314 9.0738,8.7468 1.7143,-0.18774 3.846,-0.39134 4.7371,-0.45246 z m 417.29934,-3.72773 c 31.50782,-24.03217 -1.92869,-87.06831 -51.51334,-97.115443 -16.05928,-3.25402 -48.07289,0.47625 -48.07289,5.601513 0,8.06704 6.64292,13.45285 14.35456,11.63808 39.92335,-9.39513 80.75489,14.84488 83.92666,49.82382 0.89044,9.81991 -1.46941,18.26906 -4.74811,17.00002 -10.29805,-3.98595 -15.84792,0.85121 -13.13926,11.45196 1.79393,7.02081 11.07136,7.79426 19.19238,1.60005 z m 410.57529,0.25052 c 31.6926,-24.17311 -1.2822,-87.40845 -50.82817,-97.472393 -14.66932,-2.97968 -49.90381,0.83329 -49.16348,5.320313 1.52284,9.22973 7.39528,13.80449 15.49076,12.06768 41.39949,-8.88191 81.73089,15.66061 83.44249,50.77645 0.6749,13.84754 -0.8017,16.73991 -7.6171,14.92076 -6.8531,-1.8292 -10.8193,1.11102 -10.8193,8.02055 0,10.27087 10.0661,13.55827 19.4948,6.36664 z m -677.86051,-9.59011 c 4.19888,-2.492 15.59888,-8.99489 25.33334,-14.45085 18.5331,-10.38744 19.32381,-11.74445 4.17277,-7.16131 -18.06125,5.46347 -41.50144,18.07542 -44.49301,23.93939 -1.45735,2.85665 -3.99922,6.48364 -5.64859,8.05999 -3.16096,3.02101 4.77001,-0.97118 20.63549,-10.38722 z m 422.92213,-6.79569 c 16.07273,-9.22131 28.57527,-16.98196 27.78346,-17.24589 -6.53311,-2.17771 -51.58438,19.27517 -54.34299,25.87748 -1.02393,2.4506 -3.54212,6.03877 -5.59599,7.97369 -4.94838,4.66184 -4.59477,4.47923 32.15552,-16.60528 z m -198.53112,9.6264 c 3.447,-0.86513 4.19917,-4.46821 1.14505,-5.48499 -1.88148,-0.62637 -11.1704,8.26978 -11.1704,10.69806 0,3.63778 1.83064,3.46686 4.17608,-0.3899 1.32432,-2.17769 3.9565,-4.34812 5.84927,-4.82317 z m 410.6,0.0168 c 3.1162,-0.78213 5.2902,-7.34059 2.3747,-7.16401 -2.8511,0.17266 -12.41133,11.51816 -11.56474,13.72434 0.77837,2.0284 1.25056,1.79282 3.36046,-1.67666 1.35018,-2.22018 3.97348,-4.41783 5.82958,-4.88367 z m -826.42073,3.44207 c 1.8512,-2.2 4.5124,-4 5.9139,-4 2.7353,0 2.9129,-0.59183 1.3634,-4.54308 -0.895,-2.28211 -1.6521,-1.91572 -7.3778,3.57048 -3.5092,3.36245 -5.9828,6.75683 -5.4969,7.54307 1.3004,2.10417 1.8928,1.83212 5.5974,-2.57047 z m 4.6285,-11.03668 c 1.1915,-0.41336 2.4292,-2.54163 2.7503,-4.72951 0.6988,-4.76106 -1.8267,-4.22778 -12.5834,2.65715 -7.1126,4.55243 -7.1642,4.66283 -4.1759,8.92921 2.1574,3.0802 2.1574,3.0802 7,-1.51256 2.6634,-2.52601 5.8174,-4.93094 7.009,-5.34429 z m 139.50564,-4.62928 c 1.07036,-3.24415 -3.5045,-3.14965 -8.55375,0.17667 -5.05902,3.33274 -15.11835,8.00118 -15.11835,7.01625 0,-0.27984 3.91347,-2.79749 8.6966,-5.59477 14.85638,-8.68834 -2.53384,-14.77378 -18.29159,-6.40086 -3.0792,1.63615 -6.7068,2.22298 -12.05265,1.94972 -7.01515,-0.35856 -7.9882,-0.0504 -11.76521,3.72667 -7.71611,7.71611 -1.47584,12.34728 9.25841,6.87107 9.62061,-4.90807 22.82111,-1.84846 22.82111,5.28948 0,1.87432 24.25857,-10.77062 25.00543,-13.03423 z m 270.49808,5.19969 c 3.57791,-1.83246 5.1156,-8.20269 1.97827,-8.19541 -2.51075,0.005 -10.21147,4.44068 -14.40653,8.29675 -2.74751,2.52546 -2.79608,2.88481 -0.8014,5.92906 2.12336,3.24067 2.12336,3.24067 6.25809,-0.66841 2.27411,-2.14999 5.41131,-4.56288 6.97157,-5.36199 z m 410.80081,-0.2004 c 6.8519,-4.71265 5.3539,-9.88066 -1.8116,-6.24965 -11.2677,5.70976 -13.42309,8.01985 -11.25776,12.06583 1.83887,3.43593 1.83887,3.43593 6.00015,-0.19012 2.28869,-1.99434 5.46981,-4.52606 7.06921,-5.62606 z m -287.94452,5.9356 c 6.6406,-2.77462 17.64021,-9.91416 17.64021,-11.44977 0,-2.32752 -4.09757,-2.81081 -6.383,-0.75284 -3.25591,2.93187 -16.34067,9.32112 -17.24239,8.4194 -0.41596,-0.41596 0.37959,-1.16811 1.76788,-1.67144 6.29998,-2.28411 16.66078,-10.21101 15.22407,-11.64772 -2.77128,-2.77128 -22.04508,-1.81748 -26.27859,1.30045 -3.09024,2.27592 -5.17026,2.66318 -11.75464,2.18839 -6.46108,-0.46589 -8.51345,-0.10347 -10.6692,1.88387 -9.99839,9.21753 -5.43309,14.36926 7.5236,8.49001 8.66211,-3.93053 15.18766,-3.54835 19.56396,1.14583 4.34094,4.6562 4.4323,4.67424 10.6081,2.09382 z m 414.68232,-1.78857 c 10.4976,-5.29915 13.9897,-8.31089 12.9072,-11.13173 -0.7834,-2.04158 -1.5294,-1.84827 -6.763,1.75253 -6.1939,4.26157 -15.0958,8.43373 -16.0208,7.50872 -0.3005,-0.30048 2.985,-2.42851 7.301,-4.72895 13.2699,-7.07278 13.4869,-8.90294 1.2265,-10.34393 -7.2908,-0.85688 -15.6249,0.82835 -19.5423,3.95164 -1.0592,0.84447 -5.4496,1.28931 -10.2755,1.04113 -9.561,-0.49168 -15.822,3.4769 -14.9642,9.48502 0.5799,4.06136 4.1277,4.39381 11.7762,1.10352 10.0283,-4.31404 20.2045,-3.04422 22.0437,2.7507 1.07,3.37135 3.403,3.10819 12.3112,-1.38865 z M 179.19597,172.46082 c 17.9644,-8.59997 18.9898,-12.33969 2.1832,-7.96213 -16.6414,4.33452 -24.9113,10.2398 -20.6053,14.71364 2.9044,3.01768 2.9044,3.01768 7.0247,-0.12507 2.2662,-1.7285 7.395,-4.71041 11.3974,-6.62645 z m 823.99653,-0.79577 c 2.9043,-0.87016 5.2806,-2.07281 5.2806,-2.67255 0,-0.59973 2.25,-2.27824 5,-3.73001 9.9745,-5.26571 -10.0514,-2.24072 -21.34938,3.22489 -11.87965,5.74702 -12.71289,6.71506 -9.09497,10.56616 3.03876,3.2346 3.03876,3.2346 8.96091,-1.28588 3.25718,-2.48626 8.29844,-5.23244 11.20284,-6.10261 z m -423.01815,6.39372 c 2.32064,-1.71212 6.78722,-4.24712 9.92571,-5.63335 12.67815,-5.59973 17.29649,-10.32322 9.03969,-9.2455 -16.33688,2.13238 -33.08273,11.46041 -27.82816,15.50125 3.99678,3.07359 3.83803,3.08473 8.86276,-0.6224 z m 205.63207,-7.18661 c 16.65727,-8.2668 32.85991,-13.70046 40.85349,-13.70046 2.33222,0 8.04429,-1.85109 12.69346,-4.11354 8.45306,-4.11355 8.45306,-4.11355 -5.54694,-3.49247 -24.16368,1.07197 -66.66667,17.90791 -66.66667,26.40745 0,2.2481 0.45,3.88114 1,3.62898 0.55,-0.25218 8.5,-4.18066 17.66666,-8.72996 z m -413.74786,0.98112 c 15.93525,-8.03431 30.46428,-13.12982 40.38571,-14.16378 6.86646,-0.71558 9.05788,-1.4308 20.3956,-6.65654 4.05411,-1.8686 3.49845,-1.94946 -9.72104,-1.41448 -23.05615,0.93305 -66.64575,17.65488 -66.64575,25.56661 0,4.42363 0.35296,4.34817 15.58548,-3.33181 z M 166.40397,167.1717 c 10.5792,-5.32414 10.6246,-5.33333 26.3653,-5.33333 18.6067,0 14.1763,-4.36996 -5.7395,-5.66125 -12.9508,-0.83971 -39.89,5.85106 -39.89,9.90729 0,0.91149 7.2829,7.01911 8,6.70897 0.3666,-0.15858 5.4355,-2.68834 11.2642,-5.62168 z m 403.25854,4.1734 c 4.90088,-5.9052 17.76014,-9.50673 33.94378,-9.50673 15.79985,0 15.79985,0 10,-2.66667 -16.80407,-7.72618 -62.11202,1.17451 -51.99474,10.21431 4.78848,4.27849 5.9013,4.54928 8.05096,1.95909 z m 413.17437,-1.49554 c 9.43687,-6.41252 20.56772,-9.09308 34.82572,-8.38684 12.8105,0.63454 12.8105,0.63454 6.9381,-1.96843 -17.8466,-7.91051 -63.0438,0.68047 -51.95754,9.87597 5.44638,4.5175 4.32834,4.46494 10.19372,0.4793 z M 218.28897,159.57265 c -15.3547,-22.15683 -38.8325,-30.93813 -70.2309,-26.2682 -12.5106,1.86072 -12.6224,1.94307 -14.2425,10.48544 -1.6409,8.65248 -1.5131,8.82415 4.1561,5.58481 27.2042,-15.54414 64.3178,-7.00505 80.249,18.46367 2.9191,4.66667 2.9191,4.66667 3.3523,0.88249 0.2856,-2.49421 -0.8339,-5.61268 -3.284,-9.14821 z m 410.7492,-0.12693 c -15.35236,-23.19899 -45.24604,-32.78064 -77.29487,-24.77488 -5.25712,1.31322 -5.43322,1.54364 -6.81999,8.92444 -1.76392,9.38802 -2.10065,9.12436 6.24907,4.89322 27.03191,-13.6981 59.86745,-6.53165 75.68949,16.51944 4.72983,6.89087 4.96336,7.04576 5.37772,3.56686 0.27318,-2.2935 -0.90933,-5.66551 -3.20142,-9.12908 z m 409.48793,-2.20191 c -15.9728,-21.75924 -42.65383,-29.83671 -75.053,-22.72171 -6.31579,1.38698 -7,1.8857 -7,5.10223 0,1.96073 -0.55812,5.51101 -1.24026,7.88951 -0.68214,2.37849 -1.0495,4.32453 -0.81637,4.32453 0.23315,0 4.24127,-1.77724 8.90693,-3.94941 27.7104,-12.90102 59.8945,-5.43214 74.923,17.3872 4.2267,6.41778 4.2267,6.41778 4.6472,2.45404 0.3051,-2.8756 -0.8939,-5.75438 -4.3675,-10.48639 z m -672.32355,6.66476 c 23.18504,-12.70593 47.95334,-19.57876 65.97469,-18.30697 10.53204,0.74325 24.08946,-1.06936 32.96251,-4.40706 4.15672,-1.56358 -13.87365,-6.69048 -26.66667,-7.58258 -29.45868,-2.05426 -87.16392,20.35602 -83.83953,32.55974 1.02994,3.78094 0.26826,3.92994 11.569,-2.26313 z m 434.27054,-10.4702 c 15.65091,-6.18905 28.38047,-8.51917 44.17771,-8.08665 11.97023,0.32773 23.27083,-1.04004 31.82229,-3.85163 3.37383,-1.10927 -8.05805,-5.43893 -18.77736,-7.11167 -25.77682,-4.02242 -58.79512,4.8367 -85.42416,22.92012 -4.32635,2.93798 -7.64339,5.75908 -7.3712,6.26914 0.27219,0.51004 0.87088,1.9834 1.33044,3.27413 0.74511,2.09268 2.10267,1.70767 12.53892,-3.55612 6.43685,-3.24659 16.20336,-7.68237 21.70336,-9.85732 z m -630.15062,0.13376 c 11.8481,-2.57112 23.268,-1.39017 33.2116,3.43445 5.6057,2.71988 5.6057,2.71988 1.6057,-0.67769 -16.3434,-13.88195 -50.3873,-14.99816 -69.8215,-2.28928 -7.8207,5.11431 6.779,10.14648 16.3896,5.64912 4.5524,-2.13028 12.9289,-4.88275 18.6146,-6.1166 z m 408.90247,0.4344 c 13.7428,-3.40461 27.06987,-1.96647 37.24815,4.01952 2.7564,1.62108 2.64101,1.34939 -0.66667,-1.56971 -16.29493,-14.3806 -54.00564,-15.24272 -71.00416,-1.62324 -5.51287,4.41699 9.48919,8.60428 17.67083,4.93218 4.4,-1.97482 11.93833,-4.56626 16.75185,-5.75875 z m 416.86008,-1.17241 c 9.55708,-1.58366 21.28358,0.0189 28.99998,3.96313 4.0294,2.05964 4.0398,2.05573 1.651,-0.62603 -10.7578,-12.07698 -44.50166,-14.61957 -64.59624,-4.86729 -8.32145,4.03856 -8.44492,4.54809 -2.11933,8.74592 4.88068,3.23895 4.88068,3.23895 16.09144,-1.2624 6.16593,-2.47575 15.15384,-5.15475 19.97315,-5.95333 z m -634.45791,1.15845 c 37.30997,-24.65601 81.91895,-31.47115 106.84597,-16.32339 4.65923,2.83134 25.33334,4.3996 25.33334,1.9217 0,-9.87412 -28.64468,-21.01888 -54.13612,-21.0627 -21.47898,-0.0369 -65.56389,12.8763 -70.69531,20.70786 -1.14059,1.74076 -3.27908,3.54756 -4.7522,4.0151 -4.82376,1.531 -16.69211,13.22995 -15.1432,14.92707 2.16317,2.37016 3.1001,2.05761 12.54752,-4.18564 z m 411.62609,-0.27869 c 35.8958,-24.07076 81.26599,-31.2727 104.8096,-16.63718 6.11341,3.80031 26.41029,5.7164 26.41029,2.49323 0,-10.12601 -27.9984,-21.06489 -53.9162,-21.06489 -20.89033,0 -63.91687,12.51898 -70.71944,20.5765 -1.48373,1.75746 -4.54279,4.10784 -6.79789,5.22311 -6.17163,3.05217 -14.66578,12.89555 -12.37854,14.34475 2.68368,1.7004 2.71404,1.68849 12.59218,-4.93552 z m -556.85983,-4.48991 c -8.3835,-15.72897 -26.3711,-29.02864 -43.6085,-32.24312 -13.3827,-2.49565 -40.9731,1.19001 -39.7675,5.31233 0.3558,1.21652 1.0524,4.49783 1.548,7.29182 0.7066,3.98313 1.3697,4.89413 3.0711,4.21934 27.0579,-10.73121 60.5772,-3.41984 76.1699,16.61451 7.4653,9.59175 8.1641,9.26896 2.587,-1.19488 z m 411.6081,0.89369 c -10.56858,-21.6014 -36.57544,-35.86552 -61.62252,-33.79844 -22.53395,1.85968 -24.97448,4.02776 -19.97735,17.74716 0.0457,0.12547 4.88044,-0.91992 10.74394,-2.32293 19.61224,-4.69281 38.84349,-2.85319 52.27001,5.00005 5.88675,3.4432 20.39087,18.186 20.39087,20.72643 0,0.81375 0.38013,1.09941 0.84473,0.63481 0.46462,-0.4646 -0.72774,-4.05878 -2.64968,-7.98708 z m 410.42033,-1.14672 c -13.0396,-26.0965 -52.72624,-40.57263 -81.23694,-29.63204 -1.52567,0.58546 -1.67904,12.47344 -0.18996,14.72335 0.0815,0.12307 5.24742,-0.99152 11.47985,-2.47701 28.42225,-6.77439 54.58765,0.71301 68.06265,19.4766 5.63,7.83964 6.4125,6.97137 1.8844,-2.0909 z m -680.64439,-8.13257 c 0.0412,-3.31095 -0.31573,-3.10765 -7.86182,4.47823 -6.84642,6.88249 -7.52211,7.99773 -5.85544,9.66438 1.33989,1.33991 13.683,-11.38594 13.71726,-14.14261 z m 404.72461,8.89713 c 6.16096,-6.52236 7.78739,-9.37029 6.52126,-11.41893 -0.4355,-0.70464 -4.29359,2.4912 -8.57354,7.10187 -5.22001,5.62334 -7.26516,8.71157 -6.21253,9.38105 2.24879,1.43027 1.96776,1.60245 8.26481,-5.06399 z m 411.75018,-0.46757 c 3.7391,-3.94911 6.2197,-7.80571 6.2179,-9.66667 0,-2.66501 -1.1283,-1.93646 -8.0823,5.23123 -7.068,7.28505 -8.8903,11.00588 -5.3902,11.00588 0.5686,0 3.8331,-2.95669 7.2546,-6.57044 z M 260.06657,142.9884 c -0.6442,-6.27538 -4.39284,-16.12847 -5.65567,-14.86563 -0.29272,0.29272 0.1212,2.89847 0.9199,5.79057 0.8091,2.92996 1.08774,8.74518 0.62925,13.13283 -0.82287,7.87448 -0.82287,7.87448 1.99341,5.33333 2.38875,-2.15537 2.70954,-3.58101 2.11311,-9.3911 z m 411.07318,1.26716 c 0,-4.8777 -2.8855,-15.08246 -4.26529,-15.08443 -0.22076,-3.2e-4 -0.40137,5.65563 -0.40137,12.56876 0,11.88524 0.12706,12.45456 2.33333,10.46059 1.54567,-1.39688 2.33333,-4.07888 2.33333,-7.94492 z m 411.00725,4.17501 c 0.9354,-4.89291 -1.3758,-15.5538 -3.8793,-17.89403 -1.9622,-1.83428 -2.0901,-1.7944 -1.3172,0.41088 0.4708,1.34331 0.856,7.26678 0.856,13.16326 0,10.79574 2.6067,13.39002 4.3405,4.31989 z m -739.23287,0.15897 c 1.70926,-2.51017 5.24684,-6.76652 7.86132,-9.45856 4.46447,-4.59692 4.50504,-7.17438 0.1144,-7.2722 -1.16232,-0.0259 -15.7501,17.1087 -15.7501,18.49991 0,4.37696 4.24748,3.4104 7.77438,-1.76915 z m 198.89397,-1.42382 c 11.69164,-41.75846 -43.54879,-85.053893 -99.71335,-78.151683 -21.65686,2.66147 -44.79306,12.01636 -46.26227,18.70569 -1.03693,4.72111 -3.86736,7.30276 -10.25275,9.35162 -2.69133,0.86356 -5.6148,2.43941 -6.49658,3.501893 -0.88179,1.06249 -3.81208,1.9318 -6.51178,1.9318 -5.31976,0 -14.6283,7.65171 -12.83616,10.55146 1.40519,2.27363 2.66863,1.8379 13.18719,-4.54808 66.83255,-40.575003 150.77374,-23.395643 155.20138,31.76343 0.64116,7.98745 0.9745,8.71931 4.85221,10.65299 6.23044,3.1069 7.00164,2.77866 8.83211,-3.75912 z m 212.70232,0.61878 c 2.05334,-2.96296 5.68079,-7.09709 8.06103,-9.18697 4.21351,-3.69951 4.12247,-6.75916 -0.20112,-6.75916 -2.35299,0 -16.37343,17.61161 -15.60813,19.60595 1.19654,3.11816 3.95354,1.8159 7.74822,-3.65982 z m 198.05685,-0.27946 C 965.39802,99.993007 897.74613,55.004067 838.47309,71.631687 c -17.38993,4.87832 -30.91141,11.76374 -31.797,16.1917 -0.97094,4.8547 -3.88512,7.6178 -9.73903,9.23414 -2.62865,0.72581 -5.9066,2.33978 -7.28433,3.586593 -1.37772,1.24683 -4.38693,2.21345 -6.68712,2.14805 -5.52303,-0.15703 -14.7596,7.97912 -12.08952,10.6492 1.38061,1.38061 2.88849,0.99689 7.98289,-2.03143 9.475,-5.63236 34.73653,-17.731353 42.28078,-20.250363 53.38741,-17.82597 115.18342,7.56637 117.78338,48.397883 0.50046,7.85972 0.86478,8.7148 4.71284,11.06124 5.99849,3.65772 7.21742,3.23276 8.93129,-3.11366 z m 213.89293,-0.98238 c 2.6845,-3.65697 6.4625,-7.89313 8.3955,-9.4137 3.489,-2.74444 2.6111,-5.18908 -1.8853,-5.25018 -2.2929,-0.0312 -16.2969,17.61688 -15.5415,19.58554 1.2609,3.28577 4.1704,1.70022 9.0313,-4.92166 z m -894.61974,-8.43022 c 5.67335,-14.02516 3.32883,-34.19373 -4.36738,-37.57024 -1.65,-0.723893 -3,-2.040433 -3,-2.925643 0,-0.88521 -1.3894,-3.22475 -3.08756,-5.19898 -6.49328,-7.54889 -20.91244,-2.82684 -20.91244,6.84849 0,2.828663 -0.60932,3.258973 -4.61472,3.258973 -5.52109,0 -10.05199,4.2001 -10.05199,9.31808 0,7.30392 4.6267,8.40052 14.12807,3.34858 16.16328,-8.5941 28.75066,6.45414 23.89418,28.56555 -1.41744,6.45352 4.92575,1.98439 8.01184,-5.64481 z m 250.45578,-8.71792 c -7.90448,-25.42515 -54.97222,-46.380663 -90.57,-40.323613 -28.15427,4.79051 -68.45273,23.111703 -62.94657,28.617863 1.16709,1.16709 2.3712,2.86963 2.67578,3.7834 0.39459,1.18373 3.20818,0.44757 9.78572,-2.56036 64.13979,-29.331373 116.8339,-22.267443 130.5523,17.50124 6.32323,18.33056 16.309,11.65749 10.50277,-7.01853 z m 157.82714,14.20332 c 7.3151,-8.89204 7.50431,-35.15335 0.29967,-41.58899 -2.55553,-2.282763 -5.47574,-5.771763 -6.48935,-7.753343 -5.16169,-10.0909 -22.79395,-5.29231 -22.79395,6.203313 0,1.3853 -1.25894,2.06622 -3.82018,2.06622 -4.72734,0 -10.84648,4.61732 -10.84648,8.18443 0,7.52233 5.38412,9.80471 12.66666,5.36954 16.85536,-10.26513 31.77499,6.14443 25.62372,28.18259 -1.10566,3.96125 1.85692,3.59437 5.35991,-0.66376 z m 485.96172,-9.73947 c 1.3032,-2.17177 -7.4358,-1.55324 -9.324,0.65995 -5.6455,6.61732 -6.098,7.93665 -3.6502,10.64148 2.2544,2.49104 7.3743,-1.96878 12.9742,-11.30143 z m -826.11026,5.66667 c 5.46663,-7 5.46663,-7 0.99276,-6.98298 -6.39448,0.0243 -14.39015,9.29931 -10.48088,12.15783 3.497,2.55707 3.41493,2.60183 9.48812,-5.17485 z m 410.76302,-0.0457 c 3.29844,-4.45296 4.06836,-6.2876 2.6387,-6.2876 -1.11028,0 -2.8516,-0.31961 -3.86958,-0.71025 -3.5488,-1.3618 -11.29513,10.06752 -8.30516,12.25384 3.36343,2.4594 4.13694,2.03307 9.53604,-5.25593 z m 184.09493,-1.32686 C 932.07972,103.83507 876.2834,79.152807 829.80643,91.672687 c -25.26827,6.80672 -53.82175,21.276063 -50.10038,25.388153 1.1552,1.27648 2.10037,3.02364 2.10037,3.88256 0,2.35113 1.62915,1.96716 12.31463,-2.90236 62.26236,-28.373873 115.2163,-20.894583 128.49567,18.1489 2.15931,6.34871 3.54918,8.46964 6,9.15602 6.78795,1.90101 6.93408,1.73144 6.21607,-7.21343 z m 155.43201,6.39038 c 8.518,-8.51798 8.8209,-38.74184 0.4333,-43.23076 -1.6129,-0.86318 -4.1233,-3.762163 -5.5787,-6.442193 -5.21,-9.59354 -16.3836,-8.54938 -21.2784,1.98851 -2.1858,4.705693 -3.2701,5.666663 -6.394,5.666663 -3.927,0 -10.3072,5.14354 -10.3072,8.30938 0,6.80175 7.1477,9.42852 13.4482,4.94218 13.7012,-9.75614 27.9623,2.43988 26.1054,22.3252 -0.7986,8.55221 0.01,10.00538 3.5714,6.44108 z M 509.80642,140.6679 c 0,-36.6802 -63.95399,-47.212313 -125.00001,-20.58536 -20.0427,8.7422 -18.95786,15.39839 1.21876,7.47792 48.53827,-19.05404 90.86694,-16.22189 107.81627,7.21382 2.27958,3.15194 5.15424,6.13862 6.38816,6.63708 4.03382,1.62952 9.57682,1.19921 9.57682,-0.74346 z m 201.36248,-3.49616 c 6.6653,0 7.71223,-0.37181 8.99898,-3.19592 4.56318,-10.0151 18.29529,-13.63514 27.75189,-7.3159 4.09207,2.73446 6.37545,3.35901 10.56749,2.89038 5.92736,-0.6626 12.63514,3.24622 12.67291,7.38488 0.046,5.04052 2.07237,5.78014 5.75276,2.09975 6.55272,-6.55271 3.81177,-21.86319 -3.91403,-21.86319 -1.17748,0 -3.9235,-1.5 -6.1023,-3.33333 -6.01563,-5.06182 -16.33998,-4.52151 -36.32678,1.90108 -20.89073,6.71307 -29.87534,4.73956 -25.64305,-5.63263 3.19884,-7.83948 7.33905,-9.55104 24.31057,-10.04997 13.78371,-0.405213 15.43674,-0.721293 17.24059,-3.296673 4.47548,-6.38964 -0.0282,-11.58847 -10.03908,-11.58847 -6.70091,0 -6.70091,0 -4.64409,-3.97743 2.21306,-4.27962 8.1388,-8.02257 12.70108,-8.02257 1.55201,0 4.88564,-1.57413 7.40805,-3.49808 6.41401,-4.8922 14.98567,-5.69963 21.25273,-2.00197 2.64123,1.55836 6.37927,2.83338 8.30675,2.83338 9.30052,0 12.81208,12.09973 6.29499,21.69049 -1.85978,2.7369 -3.95978,4.97618 -4.66667,4.97618 -0.70689,0 -1.28527,0.6 -1.28527,1.33334 0,2.615943 6.25635,1.2753 9.33334,-2 1.72233,-1.83334 4.22692,-3.33334 5.56574,-3.33334 7.97922,0 10.48899,-14.84539 3.72671,-22.04351 -1.69984,-1.80944 -3.66039,-3.28986 -4.35677,-3.28986 -0.69639,0 -3.60388,-2.65579 -6.4611,-5.90176 -9.96736,-11.32353 -28.51128,-13.30903 -46.81005,-5.01198 -10.04595,4.55505 -10.82259,4.0668 -8.77824,-5.51856 2.86991,-13.45609 14.98105,-16.79531 25.09519,-6.91912 9.62664,9.40016 22.23649,4.04583 15.32254,-6.50618 -5.19948,-7.93541 -18.19149,-10.79127 -27.49653,-6.0442 -2.98077,1.52069 -4.98285,2.05821 -4.44905,1.1945 1.44916,-2.34479 11.45164,-6.56329 15.64156,-6.59675 2.01666,-0.0161 3.66666,-0.65656 3.66666,-1.42323 0,-9.83436 23.24228,-10.51566 27.66406,-0.81091 1.12568,2.47059 2.23485,3.14064 4.30342,2.59969 4.3437,-1.1359 8.03253,3.10414 8.03253,9.2328 0,10.67691 8.44104,14.65079 14.56989,6.85922 28.38175,-36.0815401 -54.0667,-55.55052 -85.92296,-20.28944 -2.552,2.82475 -5.56546,5.13592 -6.69659,5.13592 -3.85823,0 -12.35149,5.24673 -16.35444,10.103 -3.57867,4.34156 -5.18328,8.45925 -7.49381,19.23033 -0.39554,1.84387 -2.76703,4.64966 -5.30726,6.27918 -12.87676,8.26027 -21.06975,29.27977 -13.37729,34.32006 9.06411,5.939023 10.79943,24.641933 3.92223,42.272893 -0.7818,2.00428 0.0219,1.97386 8.8098,-0.33334 5.31854,-1.39634 13.06434,-2.5388 17.2129,-2.5388 z m 208.69101,0.15159 c -12.8126,-36.3148 -61.77386,-43.493103 -122.38682,-17.9434 -13.56983,5.71999 -14.33333,6.24919 -14.33333,9.93471 0,3.89289 0,3.89289 5,1.72121 53.60635,-23.28311 111.0566,-19.65871 119.69267,7.55115 0.76621,2.41413 3.45536,3.3946 10.24818,3.7365 3.60752,0.18158 3.60752,0.18158 1.7793,-5.00017 z m -588.28935,-2.55909 c 4.92263,-6.80438 3.89251,-8.20646 -6.05304,-8.23875 -11.68503,-0.038 -18.4919,9.19685 -8.96269,12.15957 9.53238,2.96372 10.1522,2.80188 15.01573,-3.92082 z m 410.01272,1.15236 c 6.21268,-7.73086 5.28893,-9.41152 -5.17284,-9.41152 -6.50754,0 -15.68016,7.09674 -13.13555,10.16282 0.8386,1.01044 2.80125,1.84636 4.36145,1.85759 1.56022,0.0107 3.73675,0.60204 4.83675,1.31292 3.32924,2.15152 4.70571,1.55896 9.11019,-3.92181 z m 411.43122,-0.67903 c 5.6553,-6.90153 4.414,-8.73249 -5.9204,-8.73249 -7.0358,0 -17.5462,8.9105 -12.6199,10.69881 13.44,4.87881 12.8828,4.93791 18.5403,-1.96632 z M 322.90251,111.57536 c 12.06989,-3.90461 24.51116,-5.0993 31.15238,-2.99146 2.3961,0.76049 13.7368,-7.64914 12.27987,-9.106063 -0.31632,-0.31632 2.1354,-3.28566 5.44827,-6.59852 8.89938,-8.89939 7.37964,-19.70761 -2.77108,-19.70761 -1.67922,0 -5.21466,-1.27534 -7.85655,-2.8341 -6.07881,-3.58659 -13.60095,-2.8157 -19.9766,2.04725 -2.49029,1.89944 -5.95315,3.45352 -7.69525,3.45352 -3.13332,0 -8.95827,3.27975 -7.67504,4.32146 0.36552,0.29671 3.05312,1.41635 5.97245,2.48807 18.29681,6.71701 9.34997,20.383073 -13.40179,20.470893 -15.31013,0.0591 -20.84708,2.38158 -21.65139,9.08173 -0.71914,5.99084 6.23692,5.82471 26.17473,-0.62517 z m 411.19467,0.0691 c 11.40887,-3.73301 25.28951,-5.23259 31.07787,-3.35748 3.44135,1.1148 12.88329,-6.24064 11.76196,-9.162763 -0.41207,-1.07385 -0.10503,-1.95246 0.68232,-1.95246 0.78735,0 3.55153,-2.12 6.14265,-4.71111 8.06775,-8.06775 5.6128,-19.28889 -4.22001,-19.28889 -1.65243,0 -4.96893,-1.19776 -7.36999,-2.66168 -6.14446,-3.74628 -11.61408,-3.36069 -18.49825,1.30408 -3.22701,2.18666 -7.15084,3.98666 -8.7196,4 -5.80961,0.0494 -9.71595,4.87449 -4.81739,5.9504 6.68023,1.46722 11.00622,5.60467 10.9826,10.50398 -0.0412,8.537243 -4.40574,10.658713 -22.2142,10.797483 -14.43504,0.11249 -20.4438,2.38458 -21.57704,8.15891 -1.28746,6.56012 7.57752,6.69905 26.76908,0.41953 z m 410.68362,0.13204 c 11.6483,-4.00569 25.1201,-5.49566 31.2498,-3.4562 3.2987,1.09755 12.7563,-6.08769 11.7028,-8.891043 -0.3287,-0.87495 1.1907,-2.60574 3.3765,-3.84618 11.5862,-6.57507 11.8425,-22.3926 0.3632,-22.4201 -2.0166,-0.005 -5.4666,-1.20088 -7.6666,-2.65789 -6.569,-4.35044 -16.891,-2.82269 -21.9271,3.24542 -0.953,1.14836 -3.3929,2.08792 -5.4218,2.08792 -6.6946,0 -11.0417,4.8871 -5.3126,5.97258 20.7056,3.92311 13.4201,21.658703 -8.6197,20.983483 -13.1006,-0.40135 -17.6357,0.62747 -21.9989,4.99068 -9.3079,9.30788 2.9354,11.32264 24.2544,3.99133 z m 17.6406,-60.647063 c 7.913,-2.30038 7.913,-2.30038 3.628,-6.12903 -6.7296,-6.0129 -14.5189,-4.02583 -17.4765,4.45829 -2.4322,6.97712 -2.0098,8.07978 2.2512,5.87633 2.0263,-1.04786 7.2451,-2.94037 11.5973,-4.20559 z m -823.94832,0.49583 c 9.53876,-3.21391 9.47747,-3.16652 7.13121,-5.51277 -5.86309,-5.8631 -10.75937,-6.18437 -15.90044,-1.0433 -4.4884,4.4884 -5.60134,11.71285 -1.5641,10.15303 1.28333,-0.49583 5.93333,-2.11446 10.33333,-3.59696 z m 406.2147,1.63725 c 3.91526,-1.41675 8.86851,-2.95325 11.00724,-3.41444 3.88859,-0.83852 3.88859,-0.83852 0.66667,-4.05846 -7.24909,-7.2446 -17.48097,-4.22862 -19.39003,5.71547 -0.97989,5.10416 -1.31917,5.02688 7.71612,1.75743 z M 132.44657,260.55549 c 24.2051,-46.01479 -31.0927,-65.44993 -110.453397,-38.82027 -14.4507003,4.84898 -21.52010034,6.6665 -21.52010034,5.53276 0,-1.98264 39.82890034,-15.67474 54.54130034,-18.74984 50.158997,-10.4839 87.453497,5.50679 85.209097,36.53498 -0.6675,9.22834 -0.1452,9.29904 4.2141,0.57034 22.6062,-45.26453 -58.836697,-68.03882 -132.385797,-37.01972 -9.0443003,3.8144 -13.7870003,4.93118 -11.46760034,2.70028 C 52.573773,161.29942 184.22037,202.86041 141.64667,255.83764 c -8.5724,10.66724 -13.7176,13.3057 -9.2001,4.71785 z m 8.863,4.51964 c 1.56,-1.78021 4.4734,-5.03676 6.4741,-7.23676 50.9319,-56.00568 -55.265797,-107.58231 -136.943997,-66.50907 -9.6788003,4.86715 -10.36660034,5.0912 -10.36660034,3.3769 0,-7.51536 53.89320034,-22.83922 80.38950034,-22.85776 69.410697,-0.0485 109.566297,60.56758 61.927197,93.48109 -4.3167,2.98236 -4.3167,2.98236 -1.4802,-0.2544 z m 352.43963,2.09657 c -0.44712,-2.63497 -0.82397,-5.37326 -1.04805,-7.61528 -0.64856,-6.48917 -27.43773,-6.41892 -46.41343,0.12174 -12.702,4.3782 -14.40329,4.16598 -4.14797,-0.51738 26.92836,-12.29752 58.99873,-8.51653 53.07375,6.25723 -0.68094,1.69787 -1.33987,2.48704 -1.4643,1.75371 z m 410.81413,-2.74516 c -0.27306,-12.34149 -32.31069,-13.3727 -55.0501,-1.77192 -2.77208,1.4142 -5.04014,2.26772 -5.04014,1.89671 0,-1.45467 15.9827,-8.63547 23.63242,-10.61771 22.45298,-5.81816 43.31838,0.52934 37.99998,11.56003 -1.39217,2.88745 -1.45562,2.84355 -1.54216,-1.06711 z M 81.806373,262.66829 c 0,-9.99835 -26.5246,-11.10193 -49.5887,-2.06317 -10.2886,4.03206 -9.9022,2.70486 0.5887,-2.02222 18.5135,-8.34192 42.2088,-9.34526 49.4598,-2.09429 2.3877,2.38772 3.053,10.01643 0.8736,10.01643 -0.7334,0 -1.3334,-1.72654 -1.3334,-3.83675 z M 504.5351,263.7225 c 12.29833,-22.97965 -36.24336,-26.79785 -84.88139,-6.67664 -8.36744,3.46156 -11.96339,4.50159 -9.8473,2.84806 21.21519,-16.57766 80.27849,-24.99723 94.31531,-13.44482 6.01444,4.94994 6.21216,15.7671 0.35439,19.3874 -1.20681,0.74586 -1.19225,0.22395 0.0589,-2.114 z m 411.22205,0.4492 c 9.02725,-23.33414 -32.59624,-27.5427 -82.28406,-8.31974 -15.89384,6.14892 -16.79852,5.56904 -1.98724,-1.27379 47.02604,-21.72609 97.46189,-17.60347 87.13088,7.12208 -1.9772,4.73212 -4.6167,7.01336 -2.85958,2.47145 z M 94.778073,259.45689 c 2.2444,-19.91159 -46.7193,-21.00867 -87.3563003,-1.95731 -3.1449,1.47436 -6.0514,2.3472 -6.45900004,1.93962 -0.7545,-0.75452 9.50730034,-5.77659 21.46080034,-10.50271 40.9927,-16.20761 88.988997,-6.88197 73.5125,14.28343 -1.6758,2.29166 -1.7963,1.90001 -1.158,-3.76303 z m 13.443597,-2.79137 c 1.8528,-29.0985 -47.462297,-36.6287 -101.1899973,-15.45123 -4.1022,1.61693 -6.59680004,2.07201 -6.28850004,1.14717 C 2.0190727,238.53364 36.488473,227.2616 54.079973,224.91944 c 33.3136,-4.4354 61.769597,12.0363 57.037797,33.01629 -1.8942,8.39877 -3.4678,7.7086 -2.8961,-1.27021 z m 411.35219,-0.73954 c 0.96732,-33.04768 -56.5248,-35.93832 -122.43411,-6.15588 -11.42759,5.16379 -7.35346,1.84771 5.3672,-4.36856 64.20831,-31.37698 125.53499,-25.56749 119.99628,11.36726 -1.29747,8.65205 -3.19135,8.10716 -2.92937,-0.84282 z m 410.99133,2.97534 c 5.30995,-33.23664 -62.33172,-39.87494 -117.19927,-11.50182 -2.09401,1.08286 -4.14647,1.62968 -4.56099,1.21515 -2.46172,-2.46172 38.98004,-18.14651 58.75028,-22.23568 39.53236,-8.17665 83.42126,16.83895 63.84963,36.39273 -1.42418,1.4229 -1.57456,0.7297 -0.83965,-3.87038 z M 202.14337,243.80377 c 3.4854,-4.01431 9.9354,-11.98567 14.3334,-17.71413 8.6757,-11.30036 10.4768,-12.01796 3.8206,-1.52228 -6.0584,9.55313 -12.7771,17.42316 -19.0203,22.27962 -5.4707,4.25552 -5.4707,4.25552 0.8663,-3.04321 z m 6.3297,6.37029 c 0,-0.23364 4.0973,-4.61233 9.105,-9.73045 5.0077,-5.11811 10.7955,-11.86027 12.8618,-14.98256 4.84346,-7.31897 6.07835,-6.20916 1.59793,1.43609 -4.61593,7.8764 -23.56473,26.59383 -23.56473,23.27692 z m 21.5599,-6.48094 c 3.34811,-3.95344 8.00897,-10.48808 10.35749,-14.52142 2.34852,-4.03333 3.85088,-5.83333 3.33858,-4 -2.45531,8.7866 -11.07272,21.04762 -17.03597,24.23904 -1.6149,0.86427 -0.2381,-1.49277 3.3399,-5.71762 z m 6.48805,5.99173 c -0.0264,-0.81777 1.07104,-2.91777 2.4387,-4.66667 1.36764,-1.74889 4.10798,-6.38948 6.08964,-10.31238 4.63418,-9.17391 6.10121,-7.97074 1.68326,1.38052 -3.46722,7.3389 -10.12744,16.20816 -10.2116,13.59853 z m 391.31891,-8.66492 c 5.15176,-5.41652 11.34625,-12.24823 13.76554,-15.18156 4.3987,-5.33333 4.3987,-5.33333 1.29983,0.66667 -3.38109,6.54641 -15.79133,19.85216 -21.10181,22.62448 -1.90454,0.99426 0.67989,-2.47776 6.03644,-8.10959 z m 8.63316,8.92212 c 0,-0.56529 2.46268,-3.81988 5.47264,-7.23241 3.00994,-3.41254 7.23572,-9.5046 9.3906,-13.53794 2.91174,-5.44998 3.70861,-6.30605 3.10281,-3.33333 -0.79487,3.90049 -5.51136,12.65391 -8.98029,16.66667 -3.16627,3.66265 -8.98576,8.47912 -8.98576,7.43701 z m 10.66666,0.19559 c 0,-0.45774 1.81128,-3.51607 4.02508,-6.7963 2.2138,-3.28021 4.99956,-8.26029 6.1906,-11.06684 1.19104,-2.80653 2.41635,-4.393 2.72292,-3.52548 0.83582,2.36522 -5.74689,15.46459 -9.58164,19.06716 -1.84633,1.73454 -3.35696,2.77919 -3.35696,2.32146 z m 15.77066,-6.1802 c 1.95948,-3.68527 3.76244,-6.12039 4.00658,-5.41139 0.63007,1.82969 -4.13273,11.05103 -6.00658,11.62949 -0.85948,0.26531 0.0405,-2.53282 2,-6.2181 z m 357.02799,4.92028 c 0.6948,-1.26171 3.6995,-4.86171 6.6771,-8 2.9775,-3.13831 8.3146,-9.60602 11.8601,-14.37268 8.7515,-11.76584 9.671,-12.52118 5.3307,-4.37919 -2.0389,3.82477 -6.1628,9.82477 -9.1643,13.33333 -6.419,7.50354 -16.5256,16.72679 -14.7036,13.41854 z m 17.3001,-6.03935 c 8.1555,-8.22325 17.2723,-19.188 18.2623,-21.96397 0.334,-0.93648 1.0618,-1.28032 1.6173,-0.76408 1.5666,1.45581 -10.4779,17.45864 -18.2717,24.27638 -9.7716,8.54798 -10.7176,7.63706 -1.6079,-1.54833 z m 12.9227,3.592 c 6.3366,-7.88948 12.9786,-17.82344 12.9786,-19.41095 0,-0.83665 0.9191,-2.284 2.0425,-3.2163 1.7909,-1.48638 1.8767,-1.2591 0.6962,1.8458 -3.8285,10.0696 -9.1353,17.84832 -15.2162,22.30396 -4.1892,3.06949 -4.1892,3.06949 -0.5011,-1.52251 z m 9.6677,0.74133 c 1.4045,-2.2 4.5105,-7.6 6.902,-12 2.3916,-4.4 4.3561,-7.1 4.3656,-6 0.032,3.66991 -6.2225,15.29104 -10.0459,18.66667 -3.7755,3.33333 -3.7755,3.33333 -1.2217,-0.66667 z m 157.9776,2.04994 c 2.4756,-1.8399 11.6339,-6.7166 12.6135,-6.7166 2.8218,0 -0.3581,2.73277 -5.6073,4.81885 -8.6161,3.42416 -9.3146,3.61339 -7.0062,1.89775 z M 183.80637,247.10161 c 6.1873,-4.60631 18.3275,-17.56048 22.941,-24.47908 6.7313,-10.09447 7.6696,-11.00079 5.2184,-5.04015 -4.0347,9.81144 -13.2525,20.8859 -23.0663,27.71234 -5.6349,3.91968 -10.0212,5.47581 -5.0931,1.80689 z m 66.01223,1.73676 c 0.0799,-2.18427 6.58018,-13.00533 6.6078,-11 0.0356,2.58336 -4.5456,11.33333 -5.93372,11.33333 -0.37746,0 -0.68079,-0.15 -0.67408,-0.33333 z m 349.92927,-6.28032 c 9.81284,-8.88655 15.56439,-15.40888 20.55888,-23.31405 5.31459,-8.41182 5.37759,-6.69255 0.11267,3.0744 -4.95144,9.1854 -7.89708,12.61048 -17.74051,20.62806 -10.13102,8.25183 -12.17306,7.98123 -2.93102,-0.38841 z m 10.93672,3.61365 c 1.47199,-1.65 4.3116,-4.8 6.31027,-7 1.99867,-2.2 6.93257,-8.35 10.96423,-13.66666 8.14745,-10.74431 9.87374,-12.1687 5.66385,-4.67332 -5.17759,9.21825 -10.11103,15.6314 -16.92907,22.00665 -7.00454,6.54964 -10.71445,8.60752 -6.00928,3.33333 z m 404.61961,-7.78337 c 6.2201,-6.16915 13.2145,-14.51663 15.543,-18.54996 2.3286,-4.03333 4.2414,-6.43333 4.2507,-5.33333 0.054,6.41162 -16.6221,26.76069 -26.675,32.54996 -2.9658,1.70794 -0.6936,-1.15386 6.8813,-8.66667 z m 58.9464,5.11671 c 3.6758,-7.2095 3.4546,-6.87903 4.1437,-6.18999 0.9501,0.95015 -4.3347,11.85665 -5.7452,11.85665 -0.7083,0 0.012,-2.55 1.6015,-5.66666 z M 1214.3279,48.053237 c -1.7679,-1.65667 -3.1393,-5.10344 -3.6939,-9.28423 -1.0108,-7.62005 -3.1729,-10.06339 -7.8632,-8.8862 -2.7373,0.68703 -3.4348,0.25228 -4.1469,-2.585 -1.8695,-7.44886 -16.4703,-10.17267 -22.1458,-4.13136 -1.7196,1.83044 -2.8742,3.48044 -2.5658,3.66667 0.3085,0.18623 2.8537,1.50615 5.6561,2.93317 8.0301,4.08906 12.7034,12.07698 9.5222,16.27582 -1.724,2.27558 -1.8692,2.1368 -1.9084,-1.82443 -0.1276,-12.89869 -19.2909,-18.92052 -32.5626,-10.23241 -5.0362,3.29681 -5.2639,3.33987 -2.8131,0.53186 3.3208,-3.80493 12.1352,-7.94395 17,-7.9828 2.0166,-0.0161 3.6666,-0.54747 3.6666,-1.1808 0,-9.90257 22.7156,-10.72261 27.9148,-1.00774 1.0013,1.87086 2.3641,3.06557 3.0286,2.65489 4.6707,-2.88664 10.39,3.80596 10.39,12.15816 0,11.62022 14.6539,9.24318 16.3601,-2.6538 0.4774,-3.32911 0.6072,-3.08856 0.7734,1.43425 0.3431,9.332 -10.4403,15.89724 -16.6121,10.11395 z"
     id="path972"
     inkscape:connector-curvature="0" />
</svg>
