<?xml version="1.0" encoding="UTF-8" standalone="no"?>
<!-- Created with Inkscape (http://www.inkscape.org/) -->

<svg
   xmlns:dc="http://purl.org/dc/elements/1.1/"
   xmlns:cc="http://creativecommons.org/ns#"
   xmlns:rdf="http://www.w3.org/1999/02/22-rdf-syntax-ns#"
   xmlns:svg="http://www.w3.org/2000/svg"
   xmlns="http://www.w3.org/2000/svg"
   xmlns:sodipodi="http://sodipodi.sourceforge.net/DTD/sodipodi-0.dtd"
   xmlns:inkscape="http://www.inkscape.org/namespaces/inkscape"
   version="1.1"
   id="svg850"
   width="1231.6174"
   height="268.95587"
   viewBox="0 0 1231.6174 268.95587"
   sodipodi:docname="waves.svg"
   inkscape:version="0.92.4 5da689c313, 2019-01-14">
  <metadata
     id="metadata856">
    <rdf:RDF>
      <cc:Work
         rdf:about="">
        <dc:format>image/svg+xml</dc:format>
        <dc:type
           rdf:resource="http://purl.org/dc/dcmitype/StillImage" />
        <dc:title />
      </cc:Work>
    </rdf:RDF>
  </metadata>
  <defs
     id="defs854" />
  <sodipodi:namedview
     pagecolor="#ffffff"
     bordercolor="#666666"
     borderopacity="1"
     objecttolerance="10"
     gridtolerance="10"
     guidetolerance="10"
     inkscape:pageopacity="0"
     inkscape:pageshadow="2"
     inkscape:window-width="1920"
     inkscape:window-height="1080"
     id="namedview852"
     showgrid="false"
     fit-margin-top="0"
     fit-margin-left="0"
     fit-margin-right="0"
     fit-margin-bottom="0"
     inkscape:zoom="0.19161794"
     inkscape:cx="-454.02848"
     inkscape:cy="134.47794"
     inkscape:window-x="0"
     inkscape:window-y="0"
     inkscape:window-maximized="0"
     inkscape:current-layer="svg850"
     inkscape:snap-global="true"
     inkscape:snap-page="true" />
  <path
     style="fill:#fbfbfb;fill-opacity:1;stroke:none;stroke-opacity:1"
     d="M 1231.6176,268.95645 V 0.00136649 H 483.66842 c 0.0826,-0.008 0.15585,0.0191 0.21875,0.082 0.30006,0.30005 -0.0527,2.60495001 -0.7832,5.12305001 -5.62688,19.3931695 21.55355,31.0412195 50.84179,21.7890595 15.45605,-4.88256 21.68425,-1.23897 18.375,10.7461 -3.19272,11.56316 -21.27757,13.9846 -24.98632,3.3457 -2.07468,-5.95143 -9.52344,-2.43182 -9.52344,4.5 0,10.83056 12.67974,15.35866 28.28516,10.10156 10.34553,-3.48516 15.60879,-3.67624 17.82421,-0.64648 3.73686,5.11045 -3.90081,12.74218 -12.75195,12.74218 -2.30293,0 -4.42415,0.82617 -4.82812,1.87891 -1.19745,3.12053 -7.89604,5.12973 -13.78516,4.13477 -5.33534,-0.9014 -5.41016,-0.85905 -5.41016,3.12695 0,8.17267 6.38119,9.84333 20.29688,5.31445 7.31983,-2.38225 9.57934,-2.63506 12.33203,-1.38086 10.35407,4.71763 -6.56925,21.028284 -18.50586,17.83594 -2.84425,-0.76068 -5.38684,-0.23604 -9.86914,2.033204 -19.50827,9.87634 -42.92652,-4.251034 -35.70313,-21.539064 2.20795,-5.28435 0.67086,-6.35644 -4.49414,-3.13086 -2.10134,1.31232 -3.03641,1.19056 -5.08789,-0.66601 -6.20664,-5.61692 -15.99756,0.71613 -17.54101,11.3457 -2.05497,14.152404 2.94201,23.823114 12.61133,24.410164 4.16032,0.25259 5.35026,1.07247 7.76953,5.34961 7.0409,12.44796 38.86148,15.51282 59.4375,5.7246 9.67018,-4.6002 31.8891,-27.778034 37.28125,-38.890624 8.72657,-17.98443 24.53005,-22.30396 31.59765,-8.63672 5.08102,9.82562 -3.44864,20.8963 -13.23437,17.17578 -8.78008,-3.33818 -4.17271,5.1439 5.10937,9.406254 13.68576,6.28452 22.7084,0.99621 22.58204,-13.236334 -0.0725,-8.17637 0.24935,-9.58984 2.18554,-9.58984 7.29848,0 9.33835,-7.08741 7.94922,-27.60742 -0.53261,-7.86774 -1.16142,-7.72888 -12.66992,2.8125 -2.87914,2.63719 -5.43834,4.79492 -5.6875,4.79492 -2.40565,0 10.596,-13.73679 15.89062,-16.78906 1.15544,-0.66608 2.53389,-3.82078 3.06446,-7.01172 1.18231,-7.11063 -10.39924,1.77947 -22.32227,17.13476 -2.13884,2.75454 -3.27666,3.57403 -2.77734,2 1.99137,-6.27752 12.65631,-17.70679 22.01172,-23.58984 2.69111,-1.69228 5.88508,-5.17747 7.09765,-7.74414 3.75395,-7.94596 8.67887,-14.3051795 13.85547,-17.8925795 7.94114,-5.50321001 7.45405,-4.04130001 -1.62891,4.89258 -27.36881,26.9196595 -15.97669,69.4117895 25.86719,96.4804735 43.03997,27.84241 89.03244,25.01938 146.66407,-9.003914 39.60552,-23.38144 67.93828,-35.69013 89.33398,-38.80859 10.37381,-1.512 10.3744,-1.5126 7.8125,-4.76953 -4.94767,-6.28993 -2.82296,-14.94933 4.27539,-17.42383 6.08515,-2.12128 7.83008,-1.83548 7.83008,1.28125 0,8.37606 10.1693,11.19595 16.72656,4.63867 9.21,-9.20999 3.32533,-15.64876 -10.60351,-11.60156 -5.32975,1.54863 -14.13858,3.21349 -19.57422,3.69922 -20.57675,1.83876 -60.42762,16.94962 -103.1211,39.10351 -65.59801,34.039204 -120.66704,32.850664 -154.01367,-3.32617 -19.00411,-20.61701 -14.07157,-54.80613 9.74219,-67.5292895 1.56374,-0.83545 -0.15755,1.77233 -3.82422,5.79296 -15.17623,16.6412095 -18.59474,31.1345695 -10.99414,46.6113295 22.0074,44.81269 90.29979,51.631084 158.91797,15.86524 36.76249,-19.16169 58.32535,-28.3994 79.41015,-34.01758 8.10472,-2.15956 10.57302,-3.27194 8.66602,-3.9043 -1.46667,-0.48636 -5.66536,-2.39988 -9.33203,-4.25195 -7.49289,-3.78472 -2.38798,-5.57905 -75.84571,26.67578 -47.13128,20.69504 -61.3029,24.27196 -91.67187,23.14453 -57.35475,-2.12924 -83.23279,-33.15353 -55.08398,-66.03906 7.58113,-8.8568395 13.92428,-12.93592951 9.55664,-6.1464895 -18.21826,28.3199695 3.64392,54.6353695 45.04492,54.2207095 26.17636,-0.26219 42.86064,-4.6912 109.33203,-29.01563 44.43181,-16.25931 47.73786,-17.6082 46.8125,-19.10547 -0.89908,-1.45473 1.56087,-10.5632395 3.11133,-11.52147951 0.63667,-0.39348 0.82784,2.91168001 0.42578,7.34570001 -1.68669,18.6011195 22.24301,27.9317495 49.6875,19.3749995 16.11238,-5.02357 22.89191,-1.57788 19.45703,9.88672 -3.71222,12.39026 -25.49414,14.89011 -25.49414,2.92578 0,-2.43295 -4.65608,-1.87286 -7.12695,0.85742 -9.41028,10.39824 7.35864,20.38173 25.3457,15.08985 12.52096,-3.68372 18.6501,-3.76082 19.76562,-0.2461 1.79043,5.64113 -5.63362,12.05078 -13.95898,12.05078 -2.30293,0 -4.42611,0.82617 -4.83008,1.87891 -1.19745,3.12053 -7.89603,5.12973 -13.78515,4.13477 -5.31342,-0.89769 -5.41016,-0.84448 -5.41016,3.03906 0,7.79724 6.8133,9.696 20.07422,5.5918 10.9098,-3.37654 15.92578,-2.42186 15.92578,3.03125 0,7.70969 -10.95207,14.783244 -20.79883,13.43359 -3.83902,-0.52619 -6.47174,-0.10718 -8.76367,1.394534 -17.38912,11.39378 -43.91977,-3.086914 -37.86328,-20.666014 1.93993,-5.63071 0.72195,-6.67145 -4.52149,-3.86524 -1.77182,0.94826 -2.88725,0.76457 -4.07617,-0.66797 -2.51797,-3.03399 -9.73376,-2.45809 -12.91015,1.0293 -12.40572,13.62033 -5.59295,35.666014 11.02148,35.666014 2.29853,0 3.24609,0.7391 3.24609,2.5293 0,30.88551 83.73909,7.00003 95.60352,-27.269534 5.8405,-16.86994 21.5283,-25.76271 30.1816,-17.10937 9.9002,9.90017 2.9438,25.50127 -9.748,21.86132 -5.329,-1.52834 -5.6558,2.52214 -0.5293,6.55469 15.6412,12.303394 33.3916,1.998144 27.9609,-16.23242 -0.9899,-3.32319 -0.7753,-3.66797 2.2891,-3.66797 6.9043,0 9.178,-5.5179 8.2129,-19.93945 -1.1083,-16.56073 -0.6719,-16.43327 -13.5313,-3.99414 -4.1318,3.99683 -6.8299,5.97353 -5.9961,4.39257 1.6018,-3.03691 12.102,-13.95498 16.1426,-16.78515 3.0671,-2.14825 5.0657,-10.34246 2.5196,-10.33008 -1.9626,0.009 -13.974,11.16074 -20.8711,19.37695 -4.4322,5.27985 -4.4329,5.27926 -2.1914,0.73633 3.0998,-6.28276 13.4118,-17.02504 20.1113,-20.95117 3.953,-2.31667 6.5942,-5.29649 9.0566,-10.2207 4.1463,-8.29159 8.3533,-13.2456795 14.3574,-16.9062495 6.814,-4.15430001 7.3037,-3.21554001 0.8692,1.66601 -20.4722,15.5313095 -24.5918,46.8029795 -9.1973,69.8222695 32.8139,49.066244 97.8119,63.064954 156.336,33.671874 10.2433,-5.14459 10.2437,-5.14343 10.1308,-1.17382 -0.1,3.50211 -0.6001,3.98021 -4.2441,4.07031 -2.2718,0.0561 -7.7309,1.8549 -12.1309,3.99609 -8,3.89305 -7.9993,3.89214 4.334,3.48633 9.083,-0.29888 12.334,0.0261 12.334,1.23242 0,2.50429 -6.6658,3.4376 -21.6797,3.03516 -12.0467,-0.32291 -31.5575,2.27433 -33.7793,4.49609 -4.0614,4.0614 37.8054,8.99084 51.125,6.01953 3.3672,-0.75114 4.334,-0.5282 4.334,1 0,1.08167 -0.45,1.96864 -1,1.97071 -0.55,0.003 -6.2525,0.64822 -12.6719,1.43554 -15.3987,1.8886 -27.9158,0.0326 -40.3281,-5.97851 -8.9766,-4.34728 -28.668,-6.85359 -28.668,-3.64844 0,1.37921 10.6427,11.28771 15.0606,14.02148 10.8762,6.73011 40.6765,9.59429 59.2734,5.69727 6.6142,-1.38601 8.334,-1.40239 8.334,-0.082 0,2.26279 -11.3496,4.59922 -26.6934,5.49609 -24.6466,1.44061 -49.3479,-7.89915 -56.623,-21.4082 -2.8797,-5.34726 -15.3731,-9.04279 -15.3379,-4.53711 0.2022,25.87563 44.3962,43.00099 87.1269,33.76367 9.3763,-2.02691 13.2623,-2.0552 11.2911,-0.084 -21.6423,21.64226 -95.7503,-1.63679 -100.6153,-31.60547 -0.7923,-4.88107 -4.8073,-7.74219 -10.8652,-7.74219 -2.7147,0 -1.2067,12.86213 2.4863,21.21094 11.4857,25.96523 62.005,43.59257 98.293,34.29687 8.8033,-2.25509 12.7962,-2.25519 10.543,-0.002 -2.3573,2.35732 -22.7856,5.80891 -34.4356,5.81836 -45.13,0.0366 -82.3852,-26.59214 -82.4883,-58.95898 -0.023,-7.18836 -9.8769,-12.49577 -12.2715,-6.60938 -5.1507,12.66174 -3.5892,25.40876 2.5918,36.96875 1.4015,0.96453 2.1304,2.29094 2.2032,3.77539 20.0632,31.54237 74.5452,52.67937 118.2832,35.43945 5.1456,-2.0282 6.5117,-2.18354 6.5117,-0.74218 0,2.22497 -18.1184,8.12322 -31.334,10.20117 -25.8162,4.05919 -61.0241,-8.15434 -83.6953,-29.03321 -5.048,-4.64894 -6.9768,-5.66351 -9.334,-4.91015 -55.8806,17.85952 -109.60619,-12.14366 -113.92187,-63.6211 -0.74091,-8.837601 -0.74208,-8.839281 -6.54297,-2.78515 -11.11588,11.60118 -10.97545,36.78594 0.23242,41.89258 4.6584,2.12251 4.02947,3.8002 -1.07226,2.86328 -6.28338,-1.1539 -9.93216,-3.83465 -12.91602,-9.48633 -2.63198,-4.98513 -2.63249,-4.98352 -2.69141,-0.58398 -0.17724,13.23222 11.30579,18.93673 23.27539,11.56445 6.65316,-4.09779 7.98572,-4.10013 12.06052,-0.0254 6.1707,6.17078 1.2116,19.39453 -7.27341,19.39453 -1.85768,0 -3.35405,1.44166 -4.60742,4.44141 -3.92059,9.38327 -12.67368,13.24137 -20.85547,9.19335 -5.35506,-2.64948 -5.3546,-2.64926 -6.19726,0.85743 -2.20569,9.17885 -9.51341,19.97352 -16.7168,24.69336 -2.52754,1.65611 -3.77461,4.13454 -4.89844,9.73046 -2.82884,14.08583 -9.36381,21.69771 -22.14453,25.79102 -2.91471,0.9335 -7.92144,4.24371 -11.125,7.35742 -35.02197,34.03964 -105.3438,15.06398 -89.01367,-24.01953 5.08551,-12.17131 20.77148,-10.17118 20.77148,2.64844 0,7.4647 2.07508,10.31408 6.75977,9.28515 2.37559,-0.52177 3.90625,-0.31195 3.90625,0.53516 0,3.81024 7.97913,9.48633 13.33594,9.48633 10.17456,0 15.47088,-6.23942 7.94336,-9.35742 -8.59414,-3.55981 -13.81604,-13.01665 -9.96875,-18.05469 1.85444,-2.42841 1.92911,-2.33618 1.21484,1.50195 -2.10734,11.32402 16.73515,20.40415 29.17773,14.06055 2.71359,-1.38346 4.59968,-1.97505 4.19141,-1.31445 -1.22239,1.97786 -10.91258,6.49609 -13.93164,6.49609 -1.54513,0 -4.7883,2.10131 -7.20898,4.66797 -6.44553,6.83427 -16.18527,6.83427 -23.01954,0 -2.56667,-2.56666 -5.67413,-4.66797 -6.90429,-4.66797 -5.14543,0 -8.16406,-3.87176 -8.16406,-10.47461 0,-14.97564 -15.10038,-12.83665 -16.9043,2.39453 -4.10128,34.62894 54.13275,44.17837 86.19922,14.13477 4.409,-4.13086 9.51539,-7.52258 12.70508,-8.4375 10.10581,-2.89874 17.70017,-13.24689 19.96289,-27.20703 0.51882,-3.20089 1.67878,-5.20547 3.31445,-5.72461 4.07985,-1.29489 12.00852,-11.01136 16.17773,-19.82422 4.90231,-10.36249 4.8993,-10.41417 -1.28515,-16.53711 -8.25463,-8.17255 -9.84103,-22.89327 -4.10547,-38.09961 2.2344,-5.92394 2.24947,-6.37236 0.18359,-5.57617 -5.57934,2.15028 -18.8281,4.64806 -24.74609,4.66601 -6.01397,0.0183 -6.88839,0.46431 -11.74219,5.97852 -8.17759,9.29023 -16.9528,10.60019 -25.98633,3.87891 -3.14231,-2.33799 -5.25273,-2.94204 -8.21484,-2.34961 -7.50141,1.50028 -13.44362,-1.63283 -14.39649,-7.5918 -1.00803,-6.3038 -1.89006,-6.45932 -6.37695,-1.12695 -5.6828,6.75361 -3.67694,19.31789 3.24609,20.33398 1.11516,0.16367 4.27427,2.0096 7.01954,4.10352 6.7479,5.14687 18.36048,4.4586 38.2832,-2.26954 15.46525,-5.22278 20.2101,-5.22637 23.62305,-0.0176 5.96856,9.10918 -5.00138,16.54682 -24.04493,16.30273 -15.15797,-0.19433 -18.24414,1.06462 -18.24414,7.44336 0,5.5708 2.70327,7.33398 11.2461,7.33398 6.82852,0 6.83763,0.0141 4.12695,5.25586 -1.84212,3.56228 -7.69506,6.71214 -12.57227,6.76758 -1.1739,0.0134 -4.77494,1.81335 -8.00195,4 -7.00589,4.74726 -13.28039,5.14367 -20.79883,1.31055 -2.87679,-1.46666 -6.63214,-2.66797 -8.34375,-2.66797 -11.08824,0 -12.80703,-15.7466 -2.74804,-25.17383 4.42438,-4.1465 4.42563,-4.14617 0.58203,-4.15234 -2.11398,-0.003 -4.81398,1.10187 -6,2.45703 -1.18602,1.35516 -4.3453,3.18189 -7.01953,4.05859 -9.19414,3.01416 -10.29791,15.51998 -2.03907,23.09766 2.3294,2.13728 6.4665,5.97339 9.19336,8.52344 12.09631,11.31194 29.26009,13.04045 47.00977,4.73437 10.60208,-4.96131 10.64492,-4.94561 9.40625,3.31446 -2.3056,15.37479 -20.35177,20.263 -27.24609,7.38085 -1.02058,-1.90699 -3.22443,-2.72251 -8.54883,-3.16406 -8.11366,-0.67284 -17.00592,-4.74111 -22.91406,-10.48437 -2.2,-2.1386 -5.93851,-5.44056 -8.3086,-7.33789 -2.43732,-1.95115 -4.96854,-5.65248 -5.82812,-8.52149 -1.51976,-5.0725 -1.51983,-5.07357 -12.52149,0.082 -41.29045,19.34936 -95.66793,9.812 -121.51562,-21.3125 -2.84175,-3.42189 -2.84175,-3.42216 -10,-1.18945 -54.38999,16.9647 -110.17373,-16.83856 -110.5293,-66.97852 -0.0541,-7.631033 -10.391,-0.21687 -12.97852,9.3086 -3.64646,13.42376 -0.0318,29.27136 7.45313,32.67383 4.32039,1.96392 3.49637,3.49087 -1.4375,2.66211 -6.192,-1.04011 -10.55572,-4.59172 -13.99414,-11.39063 -2.65951,-5.25871 -2.93065,-5.4734 -2.44141,-1.91992 0.3029,2.2 0.59986,5.30274 0.66016,6.89648 0.38352,10.13617 12.58728,14.06 23.62109,7.59375 5.04579,-2.95702 6.50484,-3.27352 9.26563,-2.01562 9.54899,4.35085 5.17598,21.52539 -5.48047,21.52539 -2.04181,0 -3.26022,1.00032 -3.79102,3.11523 -2.30124,9.16887 -11.8951,14.42853 -20.08203,11.00781 -6.37329,-2.66293 -6.51725,-2.60517 -8.28125,3.36914 -2.27318,7.69876 -9.38342,17.99192 -14.52148,21.02344 -2.86197,1.68861 -4.82504,4.05614 -5.32032,6.41406 -2.75241,13.1036 -4.06105,15.95754 -10.08007,21.97657 -4.16618,4.16617 -7.83865,6.5478 -11.01953,7.14453 -2.98354,0.55972 -7.65145,3.41388 -12.45704,7.61914 -31.90263,27.91726 -81.04842,21.39511 -90.16406,-4.20117 -0.76558,-1.74975 -1.20996,-3.60313 -1.30078,-5.54883 -0.51491,-4.34929 0.0161,-9.12623 1.8125,-14.2793 4.48723,-12.87204 21.24024,-8.88537 21.24024,5.05469 0,5.36995 2.8973,8.29842 7.15234,7.23047 2.53348,-0.63586 3.45844,-0.20512 4.13476,1.92578 2.43068,7.65838 15.82163,10.99467 21.79493,5.42969 3.85942,-3.5956 3.68802,-4.63895 -1.08789,-6.61719 -9.07304,-3.75818 -14.38266,-13.81534 -9.90625,-18.76172 1.92919,-2.13173 1.74248,-2.4188 -2.48047,-3.8125 -2.51269,-0.82927 -8.3577,-4.78875 -12.98828,-8.79883 -4.63057,-4.01007 -8.80269,-7.29101 -9.27149,-7.29101 -1.13362,0 -5.34765,-8.91375 -5.34765,-11.3125 0,-1.38534 -2.57694,-0.67707 -9.66602,2.6582 -42.00378,19.76191 -86.0382,13.54227 -120.29492,-16.99023 -7.18079,-6.40013 -7.18106,-6.39944 -17.60938,-3.41602 -15.35361,4.39249 -38.62194,4.30597 -52.36136,-0.19336 -29.7941,-9.75692 -53.2965,-39.4256 -53.4023,-67.41406 -0.03,-8.000003 -0.0298,-7.999223 -6.0977,-1.69922 -11.9497,12.40708 -12.0418,37.07954 -0.1601,42.83399 6.6833,3.23683 1.0441,4.29956 -6.084,1.14648 -4.4771,-1.98044 -6.5589,-3.985 -8.7637,-8.43945 -2.652,-5.35768 -2.8916,-5.53309 -2.8926,-2.13086 0,13.6093 13.1216,21.95899 22.8204,14.51758 7.1721,-5.50281 13.2207,-4.51588 15.6875,2.56054 2.2515,6.45854 -1.4863,13.4614 -8.0528,15.08399 -3.9337,0.97199 -5.2587,2.17217 -6.8398,6.19726 -3.5641,9.07335 -15.8007,13.12994 -22.1836,7.35352 -3.2759,-2.96465 -3.1409,-3.08043 -5.336,4.54687 -2.1834,7.58653 -7.9216,15.94452 -14.5488,21.19336 -4.2407,3.35875 -5.3254,5.19444 -6.0058,10.1582 -1.776,12.95787 -13.1741,26.01172 -22.712897,26.01172 -1.0698,0 -5.4446,3.02213 -9.7207,6.7168 -30.9236,26.71922 -90.32490011,22.95038 -89.63870011,-5.6875 0.1261,-5.26281 0.2116,-5.39081 1.11130001,-1.69531 7.0572,28.98859 60.5384001,31.4865 87.5879001,4.09179 3.2261,-3.26721 7.7958,-6.25895 11.044897,-7.23242 9.7777,-2.92946 17.7981,-12.87794 19.6328,-24.35156 0.7554,-4.72395 2.2156,-6.95191 8.0489,-12.2832 13.0097,-11.8901 19.1866,-29.65971 11.1914,-32.19727 -7.2272,-2.29383 -10.3531,-22.18335 -5.6602,-36.01562 3.2403,-9.55057 3.4298,-9.22915 -3.8847,-6.57617 -3.2311,1.17191 -10.7865,2.46029 -16.7891,2.86328 -10.5145,0.70591 -10.973,0.87495 -12.5215,4.61328 -3.893397,9.39953 -21.738997,12.62904 -28.499997,5.1582 -1.8729,-2.06949 -3.5622,-2.45192 -8.5332,-1.93164 -8.1364,0.85159 -12.4078,-1.47971 -14.1621,-7.73242 -2.5878,-9.22334 -11.1491,1.6382 -9.2539,11.74023 0.8397,4.47619 6.2922,9.89142 8.1191,8.06446 0.4493,-0.44932 2.8513,0.96903 5.3379,3.15234 6.5774,5.77497 16.2502,5.54514 34.9082,-0.83008 19.736297,-6.74366 28.185597,-6.1444 28.185597,2 0,9.50724 -8.18,13.62008 -26.429697,13.28907 -21.159,-0.38379 -26.4185,13.91512 -5.5527,15.0957 8.6198,0.48771 1.1616,11.74804 -7.7813,11.74804 -2.2429,0 -4.4544,0.6097 -4.9141,1.35352 -3.6409,5.89102 -17.5011,8.15252 -24.3535,3.97461 -2.4011,-1.46393 -5.803,-2.66211 -7.5586,-2.66211 -11.8369,0 -14.8867,-13.37437 -5.3554,-23.48047 5.472,-5.80207 5.4842,-5.85156 1.5117,-5.85156 -1.7054,0 -4.51,1.4987 -6.2324,3.33203 -1.7223,1.83334 -4.4336,3.33398 -6.0254,3.33398 -4.3901,0 -7.3086,4.14176 -7.3086,10.375 0,5.6025 2.2524,12.29102 4.1386,12.29102 0.5738,0 4.6109,3.30328 8.9708,7.33984 14.488,13.41331 38.1472,15.23778 52.9101,4.08008 3.9306,-2.97074 4.6484,-2.56646 4.6484,2.62305 0,17.4669 -16.32,23.8457 -26.9453,10.53125 -1.6373,-2.05179 -4.3174,-3.06682 -9.5175,-3.60352 -8.8907,-0.9176 -14.2302,-3.55338 -22.8711,-11.29101 -3.6666,-3.28339 -7.998,-7.14816 -9.625,-8.58985 -1.6271,-1.44168 -3.3404,-4.65534 -3.8067,-7.14062 -0.8477,-4.51869 -0.8477,-4.51858 -7.3750001,-1.21094 -8.6556,4.38614 -8.8711,1.17556 -0.2285,-3.4043 3.8336001,-2.03148 6.5659001,-4.4925 6.9961001,-6.30273 1.0344,-4.35325 4.7652,-8.1646 8.9941,-9.1875 2.0411,-0.49369 5.4293,-2.0994 7.5293,-3.56836 2.0999,-1.46896 5.631,-2.61961 7.8457,-2.55664 5.2453,0.14914 13.6414,-7.32882 11.6602,-10.38477 -1.1066,-1.7069 -2.4221,-1.35646 -8.9766,2.38672 -10.0435,5.73569 -33.4791001,17.19113 -37.5039001,18.33203 -6.2148,1.76164 -2.154,-2.47091 4.5684,-4.76172 8.1692001,-2.78381 26.8510001,-12.11905 31.0312001,-15.50585 7.3937,-5.99029 -0.0703,-11.21654 -9.5625,-6.69532 -11.264,5.36501 -27.9045001,11.6658 -28.70310011,10.86719 -1.1296,-1.12953 1.57820001,-2.89022 7.15630001,-4.65234 4.8871001,-1.54381 27.2116001,-11.40296 28.3125001,-12.50391 1.5598,-1.55983 1.6278,-7.71927 0.0781,-7.04101 -6.8329,2.9898 -29.0972001,11.36554 -32.1875001,12.10937 -8.6429,2.08028 -2.1818,-2.30621 8.5039001,-5.77344 16.8126,-5.45522 25.5951,-9.60145 29.0781,-13.73046 1.7152,-2.0333 3.9801,-3.69727 5.0313,-3.69727 2.146,0 13.8515,-10.33244 13.8515,-12.22656 0,-4.65763 -3.4821,-4.58148 -9.9746,0.21679 -12.5429,9.26981 -33.8238,19.48662 -45.8515001,22.01368 -8.764,1.84134 -3.65630001,-2.25743 6.5468001,-5.25391 20.6881,-6.07572 46.0044,-21.69773 43.625,-26.91992 -0.81,-1.77776 -1.8186,-3.060953 -2.2422,-2.85157 -0.4237,0.2094 -6.1714,3.15376 -12.7714,6.54493 -11.8034,6.06477 -33.6214001,14.47656 -37.5508001,14.47656 -5.0128,0 -0.0914,-3.26653 8.9394001,-5.93359 22.6398,-6.68598 40.7175,-16.302533 41.5703,-22.113293 0.7168,-4.88344 1.7393,-5.06044 -11.3046,1.95508 -18.8595,10.143423 -40.98640011,17.859023 -40.98640011,14.291023 0,-0.78668 2.54930001,-2.06393 5.66600001,-2.83789 14.3105001,-3.55372 47.1797001,-19.060043 48.3731001,-22.820323 0.4087,-1.28744 2.1999,-4.48746 3.9805,-7.11132 3.9515,-5.82279 3.274,-5.50204 -33.3536,15.75 C 11.861543,100.00541 0.91074289,105.57343 0.62154289,104.76884 -1.9987571,97.480007 71.440543,62.326377 97.678143,58.309857 c 10.362997,-1.5864 10.362997,-1.58577 7.701197,-6.44532 -3.4413,-6.28258 -2.2673,-11.28578 3.4688,-14.7832 5.3787,-3.27951 8.9629,-3.38309 8.9629,-0.25977 0,11.29069 18.6971,10.59987 20.83,-0.76953 1.3378,-7.13129 -1.7282,-9.32256 -9.8222,-7.02148 -11.665,3.3163 -22.2908,5.36454 -27.9688,5.39258 C 89.930043,34.477146 49.435843,49.285926 19.980943,63.997466 9.8078429,69.078496 1.1594429,72.910326 0.76024289,72.511136 -2.0764571,69.674376 60.064043,41.751696 80.980943,36.464256 c 11.8965,-3.00725 11.8965,-3.00772 6.6972,-4.69531 -2.8596,-0.92817 -6.9117,-2.88888 -9.0039,-4.35742 -4.4875,-3.14996 -0.9869,-4.33789 -48.6035,16.48242 -16.3577,7.15237 -29.51700011,12.33026 -29.24220011,11.50586 0.55130001,-1.65397 15.64400011,-8.57102 48.77350011,-22.35352 25.3759,-10.55684 23.2757,-9.20125 21.1953,-13.68164 -2.0873,-4.49493 -0.8881,-4.66281 -18.5899,2.60157 -32.7362,13.43416 -51.72850011,20.25799 -51.72850011,18.58593 0,-0.97672 14.17640011,-6.84435 34.00000011,-14.07422 34,-12.40014 34,-12.40054 34,-16.7324195 0,-2.38254 1.1516,-5.74922 2.5606,-7.48047 2.562,-3.14771001 2.5635,-3.14631001 1.1269,2.26758 -5.3407,20.1266595 23.4091,32.3957395 51.998097,22.1914095 12.1336,-4.33088 17.6465,-2.11087 17.6465,7.10156 0,14.02072 -22.5402,19.93561 -25.8418,6.78125 -0.9944,-3.96206 -5.3004,-3.37004 -8.252,1.13477 -7.1676,10.93918 10.3507,19.79587 27.6367,13.97265 10.8911,-3.66895 17.6515,-3.13132 18.1856,1.44727 0.5279,4.52492 -4.565,9.16761 -11.2031,10.21289 -2.8552,0.44957 -6.8881,2.22587 -8.961,3.94726 -4.0179,3.33652 -8.0273,3.90213 -13.3437,1.88086 -2.7579,-1.04857 -3.4018,-0.81098 -4,1.47657 -2.3976,9.16841 6.093,12.49416 19.9472,7.81445 13.1322,-4.43584 18.6848,-1.50306 14.2989,7.55273 -2.7496,5.67737 -8.6731,8.60484 -18.2207,9.00391 -4.5353,0.18957 -10.9461,1.391574 -14.2461,2.671874 -20.662197,8.01641 -40.097997,-6.819484 -32.669997,-24.937504 1.1327,-2.76291 -3.1272,-3.33558 -5.6972,-0.76562 -1.2024,1.20244 -2.1457,1.0475 -4.0391,-0.66602 -6.0754,-5.49817 -14.8079,-0.58122 -17.6387,9.93164 -3.6073,13.39633 2.0534,24.616374 13.17,26.107434 3.6469,0.48914 5.5429,1.41292 5.5429,2.70117 0,13.35872 38.587797,18.51718 60.900397,8.14062 7.852,-3.65162 34.5646,-30.316064 35.7422,-35.677734 3.1503,-14.3432 20.1194,-24.46541 29.1309,-17.37695 10.8092,8.50256 3.6683,27.02631 -8.75,22.69726 -5.1983,-1.81211 -5.0264,-1.84362 -5.0157,0.9082 0.02,5.04753 13.8334,11.598724 21.6661,10.275404 8.874,-1.49925 12.1483,-6.169054 11.2285,-16.019544 -0.7733,-8.28114 -0.7731,-8.2821 3.0898,-9.05468 6.3703,-1.27406 8.31681,-9.31816 6.1016,-25.20118 -1.3743,-9.85435 -0.3539,-10.09137 -15.2617,3.54883 -3.3776,3.09033 -4.1402,3.41878 -3.0586,1.31641 0.7927,-1.54078 5.139,-6.22419 9.6582,-10.4082 7.3936,-6.84521 12.21863,-15.58405 9.89059,-17.91211 -0.88759,-0.8875 -24.65629,23.42912 -24.65629,25.22461 0,0.92124 -0.3449,1.33089 -0.7656,0.91015 -2.5578,-2.55781 13.4613,-20.97301 22.2363,-25.5625 3.0556,-1.59814 5.37164,-4.0842 6.36528,-6.83203 3.17002,-8.76657 18.25915,-24.3013695 20.9707,-21.5898395 0.36666,0.36667 -1.43653,1.96751 -4.00781,3.55664 -26.03157,16.0883495 -25.32627,55.9329895 1.48047,83.6347595 44.47442,45.959484 99.32332,48.092844 169.7207,6.60157 37.91089,-22.34417 64.15006,-33.68151 85.70899,-37.03321 10.02124,-1.55796 10.02102,-1.55676 7.36914,-6.64453 -3.53956,-6.79079 -2.02545,-11.60414 4.69922,-14.9375 5.84615,-2.89788 8.88867,-2.16138 8.88867,2.15235 0,4.42538 2.45054,6.30859 8.20703,6.30859 6.23022,0 11.79297,-4.98396 11.79297,-10.56445 0,-6.93987 -2.4475,-7.43483 -17.64063,-3.56836 -7.53083,1.9165 -16.13646,3.47973 -19.125,3.47461 -13.94963,-0.024 -55.19824,15.72646 -96.76367,36.94921 -73.03056,37.288414 -134.00902,34.339724 -162.1875,-7.8457 -12.89681,-19.30754 -5.9319,-52.16306 12.78711,-60.3242195 2.26272,-0.98651 1.06904,0.97376 -5.19922,8.5449195 -16.56159,20.00401 -15.29294,39.21763 3.85938,58.46876 32.94416,33.114114 83.64444,31.791774 155.69531,-4.06055 35.87771,-17.85267 54.59209,-25.66448 72.17188,-30.12891 9.33202,-2.36991 9.33256,-2.37105 -0.38086,-6.91211 -5.3424,-2.49759 -9.6479,-4.87657 -9.56641,-5.28711 1.69385,-8.53348 -3.29637,-8.83942 -21.74023,-1.33398 -100.99662,41.09897 -135.12389,48.32158 -168.78711,35.72656 -16.60396,-6.21234 -26.71243,-23.0325 -23.24219,-38.67578 1.18788,-5.35478 1.13106,-5.59412 -0.76172,-3.13086 -22.32372,29.05236 2.72961,56.02253 53.54883,57.64453 33.33437,1.06394 51.34209,-3.25613 96.2832,-23.09375 32.52931,-14.35888 61.77816,-26.26674 62.57031,-25.47461 0.52398,0.52399 -65.12054,29.49887 -91.57812,40.42188 -82.75255,34.164434 -167.71582,-7.51464 -117.56055,-57.6699195 7.72769,-7.72768001 8.63944,-7.34948001 4.07813,1.69335 -15.10552,29.9468895 13.05507,54.5290195 57.13867,49.8769595 26.07183,-2.75132 34.15309,-5.07583 96.40039,-27.72656 23.10001,-8.40569 43.65131,-15.87915 45.66797,-16.60743 2.64298,-0.95445 3.66601,-2.23734 3.66601,-4.59375 0,-3.0998995 3.2838,-10.79892951 4.52344,-10.91991951 H 4.4289338e-4 V 268.95645 Z M 409.42428,241.03848 c 0.22937,1.9374 0.6734,3.78716 1.30078,5.54883 9.3213,21.30396 65.44642,27.33032 90.43946,-0.33399 2.552,-2.82475 5.56613,-5.13476 6.69726,-5.13476 3.85823,0 12.35057,-5.24725 16.35352,-10.10352 3.57867,-4.34156 5.18361,-8.45939 7.49414,-19.23047 0.39554,-1.84387 2.76641,-4.64978 5.30664,-6.2793 12.87676,-8.26027 21.06941,-29.28002 13.37695,-34.32031 -9.06411,-5.93902 -10.79907,-24.64052 -3.92187,-42.27148 0.7818,-2.00428 -0.0207,-1.97517 -8.8086,0.33203 -5.31854,1.39634 -13.06433,2.53906 -17.21289,2.53906 -6.6653,0 -7.71325,0.37121 -9,3.19532 -4.56318,10.0151 -18.29535,13.63564 -27.75195,7.3164 -4.09207,-2.73446 -6.37437,-3.35925 -10.56641,-2.89062 -5.92736,0.6626 -12.63606,-3.24611 -12.67383,-7.38477 -0.046,-5.04052 -2.07156,-5.78 -5.75195,-2.09961 -6.55272,6.55271 -3.81174,21.86329 3.91406,21.86328 1.17748,0 3.92277,1.50066 6.10157,3.33399 6.01563,5.06182 16.33937,4.52025 36.32617,-1.90234 20.89073,-6.71307 29.87487,-4.73938 25.64258,5.63281 -3.19884,7.83948 -7.33903,9.55185 -24.31055,10.05078 -13.78371,0.40521 -15.43639,0.72149 -17.24024,3.29687 -4.47548,6.38964 0.0282,11.58789 10.03907,11.58789 6.70091,0 6.70135,0.001 4.64453,3.97852 -2.21306,4.27961 -8.13889,8.02148 -12.70117,8.02148 -1.55201,0 -4.8858,1.5741 -7.40821,3.49805 -6.41401,4.8922 -14.98489,5.69961 -21.25195,2.00195 -2.64123,-1.55836 -6.37916,-2.83398 -8.30664,-2.83398 -9.30052,0 -12.81201,-12.0987 -6.29492,-21.68946 1.85978,-2.7369 3.95912,-4.97656 4.66601,-4.97656 0.70689,0 1.28516,-0.60064 1.28516,-1.33398 0,-2.61595 -6.25699,-1.2753 -9.33398,2 -1.72234,1.83334 -4.22564,3.33398 -5.56446,3.33398 -7.97922,0 -10.48884,14.84485 -3.72656,22.04297 1.69984,1.80944 3.65909,3.29102 4.35547,3.29102 0.69639,0 3.60372,2.65442 6.46094,5.90039 9.96736,11.32353 28.51177,13.31072 46.81054,5.01367 10.04595,-4.55505 10.82365,-4.06778 8.7793,5.51758 -2.86991,13.45609 -14.98156,16.79611 -25.0957,6.91992 -9.62664,-9.40016 -22.23622,-4.04615 -15.32227,6.50586 5.19948,7.93541 18.19105,10.79004 27.49609,6.04297 2.98077,-1.52069 4.98302,-2.05707 4.44922,-1.19336 -1.44916,2.34479 -11.45265,6.56224 -15.64257,6.5957 -2.01667,0.0161 -3.66602,0.65716 -3.66602,1.42383 0,9.83436 -23.24228,10.5153 -27.66406,0.81055 -1.12568,-2.47059 -2.23417,-3.14056 -4.30274,-2.59961 -4.3437,1.1359 -8.0332,-3.10377 -8.0332,-9.23243 0,-10.67691 -8.44146,-14.65094 -14.57031,-6.85937 -4.28581,5.44852 -6.02924,10.51457 -5.81641,15.07422 z m 696.92582,-82.08789 c -0.7904,-1.24257 -1.5224,-2.50223 -2.2032,-3.77539 -2.0965,-1.44287 -5.7011,-2.07384 -10.8808,-1.20117 -38.678,6.51631 -68.0186,-6.46664 -81.586,-36.10156 -5.3129,-11.60505 -4.9055,-33.022914 0.584,-30.662114 9.0924,3.91025 15.7667,-0.0637 14.4043,-8.57618 -0.9021,-5.63692 -4.6332,-9.23243 -9.0742,-8.74609 -1.7143,0.18774 -3.8452,0.39201 -4.7363,0.45313 -8.2826,0.56798 -16.61461,16.14531 -16.72268,31.267574 -0.3266,45.70148 46.13148,79.27057 95.54488,69.03906 9.8379,-2.03701 14.8758,-7.49538 14.67,-11.69726 z M 45.943843,251.47793 c -5.991,-0.0738 -12.2777,-2.31334 -14.7149,-6.86719 -1.0013,-1.87086 -2.3628,-3.06497 -3.0273,-2.65429 -4.6707,2.88664 -10.3906,-3.80601 -10.3906,-12.15821 0,-11.62022 -14.6532001,-9.24463 -16.3594001,2.65235 -0.47740001,3.32911 -0.60730001,3.08921 -0.77350001,-1.4336 -0.3431,-9.332 10.43960011,-15.89657 16.61140011,-10.11328 1.7679,1.65667 3.1387,5.10242 3.6933,9.28321 1.0108,7.62005 3.173,10.0639 7.8633,8.88671 2.7373,-0.68703 3.4364,-0.25134 4.1485,2.58594 1.8695,7.44886 16.469,10.17217 22.1445,4.13086 1.7196,-1.83044 2.8748,-3.48174 2.5664,-3.66797 -0.3085,-0.18623 -2.8539,-1.50462 -5.6563,-2.93164 -8.0301,-4.08906 -12.7026,-12.0785 -9.5214,-16.27734 1.724,-2.27558 1.869,-2.13506 1.9082,1.82617 0.1276,12.89869 19.2908,18.92053 32.5625,10.23242 5.0362,-3.29681 5.2633,-3.34121 2.8125,-0.5332 -3.3208,3.80493 -12.1352,7.94357 -17,7.98242 -2.0166,0.0161 -3.6661,0.54831 -3.6661,1.18164 0,5.26074 -6.4113,7.95868 -13.2011,7.875 z M 895.20553,227.4916 c 2.25697,-0.15151 4.45977,-1.35429 6.70899,-3.60351 4.4884,-4.4884 5.59973,-11.71412 1.5625,-10.1543 -1.28333,0.49583 -5.93204,2.11516 -10.33204,3.59766 -9.53876,3.21391 -9.47712,3.16547 -7.13086,5.51172 3.29799,3.29799 6.28959,4.84323 9.19141,4.64843 z M 73.275843,227.4252 c 4.1849,0.14017 7.921,-2.62516 9.7695,-7.92774 2.4322,-6.97712 2.0091,-8.0804 -2.2519,-5.87695 -2.0263,1.04786 -7.2455,2.94181 -11.5977,4.20703 -7.913,2.30038 -7.9119,2.30026 -3.6269,6.12891 2.5236,2.25483 5.196,3.38465 7.707,3.46875 z m 410.796877,-0.26172 c 4.93521,0.0111 9.38105,-3.49784 10.57422,-9.71289 0.97989,-5.10416 1.31849,-5.02531 -7.7168,-1.75586 -3.91526,1.41675 -8.86908,2.95287 -11.00781,3.41406 -3.88859,0.83852 -3.88794,0.83865 -0.66602,4.05859 2.71841,2.71673 5.85528,3.98943 8.81641,3.9961 z m -16.77539,-26.18555 c 3.34906,0.0578 6.77414,-1.212 10.64648,-3.83594 3.22701,-2.18666 7.14999,-3.98666 8.71875,-4 5.80961,-0.0494 9.71692,-4.87331 4.81836,-5.94922 -6.68023,-1.46722 -11.00604,-5.60459 -10.98242,-10.5039 0.0412,-8.53725 4.40638,-10.66006 22.21484,-10.79883 14.43504,-0.11249 20.44294,-2.38387 21.57618,-8.1582 1.28746,-6.56012 -7.57798,-6.69944 -26.76954,-0.41992 -11.40887,3.73301 -25.28976,5.23253 -31.07812,3.35742 -3.44135,-1.1148 -12.88305,6.23998 -11.76172,9.16211 0.41207,1.07385 0.10571,1.95312 -0.68164,1.95312 -0.78735,0 -3.55146,2.11983 -6.14258,4.71094 -8.06775,8.06775 -5.61211,19.28906 4.2207,19.28906 1.65243,0 4.96808,1.19819 7.36914,2.66211 2.68821,1.639 5.24674,2.48632 7.85157,2.53125 z m -410.990187,-0.041 c 5.0704,0.0812 10.284,-1.9379 13.4316,-5.73047 0.953,-1.14836 3.393,-2.08789 5.4219,-2.08789 6.6946,0 11.0416,-4.88718 5.3125,-5.97266 -20.7056,-3.92311 -13.4207,-21.65959 8.6191,-20.98437 13.100597,0.40135 17.634897,-0.62703 21.998097,-4.99024 9.3079,-9.30788 -2.935,-11.32349 -24.253897,-3.99218 -11.6484,4.00569 -25.1204,5.49649 -31.25,3.45703 -3.2988,-1.09755 -12.7567,6.08727 -11.7032,8.89062 0.3287,0.87495 -1.1892,2.60527 -3.375,3.84571 -11.5862,6.57507 -11.8426,22.39437 -0.3633,22.42187 2.0166,0.005 5.4661,1.19924 7.6661,2.65625 2.4633,1.63142 5.4538,2.43761 8.4961,2.48633 z m 311.581977,-0.0879 c 8.41955,-0.0656 16.92059,-1.18518 25.25586,-3.52344 17.38993,-4.87832 30.91129,-11.7654 31.79688,-16.19336 0.97094,-4.8547 3.88437,-7.61608 9.73828,-9.23242 2.62865,-0.72581 5.90743,-2.34107 7.28516,-3.58789 1.37772,-1.24683 4.38731,-2.21384 6.6875,-2.14844 5.52303,0.15703 14.75797,-7.97836 12.08789,-10.64844 -1.38061,-1.38061 -2.88803,-0.99707 -7.98243,2.03125 -9.475,5.63236 -34.73699,17.731 -42.28124,20.25001 -53.38742,17.82596 -115.18325,-7.56497 -117.78321,-48.39649 -0.50046,-7.85972 -0.86483,-8.71606 -4.71289,-11.0625 -5.99849,-3.65772 -7.21582,-3.23314 -8.92969,3.11328 -11.02642,40.83066 37.38512,79.79939 88.83789,79.39844 z m 511.16407,-0.002 c 3.85088,-0.0987 7.79846,-1.53998 11.38476,-4.27539 2.49029,-1.89944 5.95322,-3.45313 7.69531,-3.45313 3.13333,0 8.95902,-3.28055 7.67579,-4.32226 -0.36552,-0.29671 -3.05333,-1.41656 -5.97266,-2.48828 -18.29681,-6.71701 -9.34942,-20.38288 13.40234,-20.4707 15.31013,-0.0591 20.84608,-2.38188 21.65039,-9.08203 0.71914,-5.99084 -6.23601,-5.82488 -26.17382,0.625 -12.06989,3.90461 -24.51113,5.10003 -31.15235,2.99219 -2.3961,-0.76049 -13.73622,7.64854 -12.27929,9.10546 0.31632,0.31632 -2.13635,3.28675 -5.44922,6.59961 -8.89938,8.89939 -7.37924,19.70703 2.77148,19.70703 1.67922,0 5.21358,1.27522 7.85547,2.83398 2.65948,1.56914 5.59666,2.30526 8.5918,2.22852 z m -102.64453,-0.18164 c 4.3451,0.0489 8.72542,-0.18342 13.11328,-0.72266 21.65686,-2.66147 44.79446,-12.01574 46.26367,-18.70507 1.03693,-4.72111 3.86656,-7.30466 10.25195,-9.35352 2.69133,-0.86356 5.61432,-2.43751 6.4961,-3.5 0.88179,-1.06249 3.81201,-1.93359 6.51171,-1.93359 5.31976,0 14.63003,-7.65103 12.83789,-10.55078 -1.40519,-2.27363 -2.66894,-1.83715 -13.1875,4.54883 -66.83255,40.575 -150.77353,23.3954 -155.20117,-31.76367 -0.64116,-7.98745 -0.9758,-8.72062 -4.85351,-10.6543 -6.23044,-3.1069 -7.00156,-2.77802 -8.83203,3.75976 -10.77823,38.49608 35.32742,78.29845 86.59961,78.875 z m 9.69531,-19.71094 c 4.70926,0.043 9.33738,-0.29169 13.78711,-1.04883 28.15427,-4.79051 68.45342,-23.11102 62.94726,-28.61718 -1.16709,-1.16709 -2.3712,-2.87139 -2.67578,-3.78515 -0.39459,-1.18373 -3.20761,-0.44739 -9.78515,2.56054 -64.13979,29.33137 -116.83434,22.26868 -130.55274,-17.5 -6.32323,-18.33056 -16.31014,-11.65844 -10.50391,7.01758 6.91643,22.24701 43.81835,41.07217 76.78321,41.37304 z m -629.60933,-0.25195 c 4.3089,-0.068 8.6808,-2.98573 11.2812,-8.58399 2.1858,-4.70569 3.2706,-5.66796 6.3945,-5.66796 3.927,0 10.3067,-5.14275 10.3067,-8.30859 0,-6.80175 -7.1468,-9.42775 -13.4473,-4.94141 -13.7012,9.75614 -27.9624,-2.44085 -26.1055,-22.32617 0.7986,-8.55221 -0.0108,-10.00571 -3.5722,-6.44141 -8.518,8.51798 -8.8193,38.74155 -0.4317,43.23047 1.6129,0.86318 4.1228,3.76333 5.5782,6.44336 2.4421,4.49697 6.1941,6.65567 9.9961,6.5957 z m 218.60152,-0.11719 c 8.95861,0.0865 18.00041,-0.9533 26.71484,-3.30078 25.26827,-6.80672 53.82098,-21.27658 50.09961,-25.38867 -1.1552,-1.27648 -2.09961,-3.02389 -2.09961,-3.88281 0,-2.35113 -1.62897,-1.96718 -12.31445,2.90234 -62.26236,28.37388 -115.21673,20.89505 -128.4961,-18.14843 -2.15931,-6.34871 -3.54918,-8.46987 -6,-9.15625 -6.78795,-1.90101 -6.93285,-1.73198 -6.21484,7.21289 2.23687,27.86664 39.48987,49.38709 78.31055,49.76171 z m 603.73437,-0.29492 c 6.1044,-0.0149 12.31445,-4.23064 12.31445,-10.58008 0,-2.82866 0.60984,-3.25976 4.61524,-3.25976 5.52108,0 10.05078,-4.19843 10.05078,-9.31641 0,-7.30392 -4.6256,-8.40155 -14.12695,-3.34961 -16.16328,8.5941 -28.75102,-6.45304 -23.89453,-28.56445 1.41743,-6.45352 -4.92563,-1.98467 -8.01172,5.64453 -5.67335,14.02516 -3.32903,34.19381 4.36718,37.57032 1.65,0.72389 3,2.04056 3,2.92577 0,0.88521 1.38973,3.22304 3.08789,5.19727 2.23207,2.59493 5.40012,3.74022 8.59766,3.73242 z m -411.66601,-0.0664 c 6.42587,0.0474 13.3125,-4.52226 13.3125,-11.70703 0,-1.3853 1.25907,-2.06641 3.82031,-2.06641 4.72734,0 10.84765,-4.61648 10.84765,-8.18359 0,-7.52233 -5.38543,-9.80431 -12.66796,-5.36914 -16.85537,10.26513 -31.77432,-6.14544 -25.62305,-28.1836 1.10566,-3.96125 -1.85639,-3.59407 -5.35938,0.66407 -7.3151,8.89204 -7.50542,35.1542 -0.30078,41.58984 2.55553,2.28277 5.47663,5.77037 6.49024,7.75195 1.93563,3.78409 5.62494,5.47547 9.48047,5.50391 z m 94.19335,-7.82227 c 15.77884,0.0834 33.78711,-2.97636 33.78711,-6.82031 0,-8.06704 -6.64383,-13.45149 -14.35546,-11.63672 -39.92336,9.39513 -80.75402,-14.84528 -83.92579,-49.82422 -0.89044,-9.819909 1.46935,-18.269039 4.74805,-16.999999 10.29805,3.98595 15.84733,-0.85237 13.13867,-11.45312 -1.79393,-7.02081 -11.07038,-7.79382 -19.1914,-1.59961 -31.50782,24.03217 1.92706,87.068099 51.51171,97.115229 4.01482,0.81351 9.0275,1.19095 14.28711,1.21875 z m -411.57226,-0.0547 c 16.06362,-0.0257 35.7447,-3.01168 35.18945,-6.37695 -1.52284,-9.22973 -7.39475,-13.80517 -15.49023,-12.06836 -41.39949,8.88191 -81.73179,-15.65955 -83.44339,-50.77539 -0.6749,-13.847542 0.8018,-16.741022 7.6172,-14.921872 6.8531,1.8292 10.8184,-1.11 10.8184,-8.01953 0,-10.27087 -10.0655,-13.55882 -19.4942,-6.36719 -31.6926,24.17311 1.2822,87.408712 50.82816,97.472652 3.66733,0.74492 8.62007,1.0652 13.97461,1.05664 z m 117.89844,-7.5957 c 19.13559,0.18243 41.83692,-4.79621 66.46093,-15.17578 13.56983,-5.71999 14.33204,-6.24807 14.33204,-9.93359 0,-3.89289 0,-3.89239 -5,-1.72071 -53.60636,23.28311 -111.05534,19.65713 -119.69141,-7.55273 -0.76621,-2.41413 -3.45523,-3.39443 -10.24805,-3.73633 -3.60752,-0.18158 -3.60751,-0.18175 -1.7793,5 7.60749,21.56191 27.95838,32.85251 55.92579,33.11914 z m 412.75,-1.01758 c 20.1842,-0.11477 43.48469,-4.87426 66.37695,-14.85937 20.0427,-8.7422 18.95787,-15.39899 -1.21875,-7.47852 -48.53827,19.05404 -90.86708,16.22282 -107.81641,-7.21289 -2.27958,-3.15194 -5.15475,-6.14021 -6.38867,-6.63867 -4.03382,-1.62952 -9.57617,-1.19853 -9.57617,0.74414 0,22.92513 24.98271,35.63661 58.62305,35.44531 z m -525.91993,-10.4414 c 6.91038,-0.10521 13.68126,-1.28253 19.91797,-3.67578 1.52567,-0.58546 1.68049,-12.47275 0.19141,-14.72266 -0.0815,-0.12307 -5.24804,0.99107 -11.48047,2.47656 -28.42225,6.77439 -54.58749,-0.71297 -68.06249,-19.47656 -5.63,-7.83964 -6.4129,-6.97047 -1.8848,2.0918 10.1872,20.38789 36.6385,33.68238 61.31838,33.30664 z m 406.02149,-0.45703 c 1.56894,-0.004 3.13768,-0.0681 4.70312,-0.19727 22.53395,-1.85968 24.9737,-4.02865 19.97657,-17.74805 -0.0457,-0.12547 -4.88064,0.91926 -10.74414,2.32227 -19.61224,4.69281 -38.84302,2.85324 -52.26954,-5 -5.88675,-3.4432 -20.39062,-18.18613 -20.39062,-20.72656 0,-0.81375 -0.37915,-1.09937 -0.84375,-0.63477 -0.46462,0.4646 0.7265,4.05998 2.64844,7.98828 9.90804,20.25132 33.38586,34.05311 56.91992,33.9961 z m 410.32619,-0.0566 c 13.3491,-0.17698 28.6425,-3.0235 27.7383,-6.11524 -0.3558,-1.21652 -1.0513,-4.49898 -1.5469,-7.29297 -0.7066,-3.98313 -1.3708,-4.89354 -3.0723,-4.21875 -27.0579,10.73121 -60.5772,3.42107 -76.1699,-16.61328 -7.4652,-9.59175 -8.1631,-9.27048 -2.5859,1.19336 8.3834,15.72897 26.37,29.02966 43.6074,32.24414 3.3457,0.62391 7.5796,0.86173 12.0293,0.80274 z M 381.061,150.45057 c 20.89033,0 63.91618,-12.51865 70.71875,-20.57617 1.48373,-1.75746 4.54373,-4.10739 6.79883,-5.22266 6.17163,-3.05217 14.66614,-12.89455 12.3789,-14.34375 -2.68368,-1.7004 -2.71561,-1.69041 -12.59375,4.9336 -35.8958,24.07076 -81.26498,31.27419 -104.80859,16.63867 -6.11341,-3.80031 -26.41016,-5.71731 -26.41016,-2.49414 0,10.12601 27.99822,21.06445 53.91602,21.06445 z m 410.88672,-0.0215 c 21.47898,0.0369 65.56389,-12.87743 70.69531,-20.70899 1.14059,-1.74076 3.27883,-3.54808 4.75195,-4.01562 4.82376,-1.531 16.69149,-13.22866 15.14258,-14.92578 -2.16317,-2.37016 -3.09945,-2.05771 -12.54687,4.18554 -37.30997,24.65601 -81.91869,31.47003 -106.84571,16.32227 -4.65923,-2.83134 -25.33398,-4.39978 -25.33398,-1.92188 0,9.87412 28.64528,21.02064 54.13672,21.06446 z m -296.74024,-7.97852 c 6.50754,0 15.67938,-7.09603 13.13477,-10.16211 -0.8386,-1.01044 -2.80113,-1.84619 -4.36133,-1.85742 -1.56022,-0.0107 -3.73594,-0.60162 -4.83594,-1.3125 -3.32924,-2.15152 -4.70684,-1.5589 -9.11132,3.92187 -6.21268,7.73086 -5.28795,9.41016 5.17382,9.41016 z m -410.683637,0 c 7.0359,0 17.545497,-8.90895 12.6192,-10.69726 -13.44,-4.87881 -12.8816,-4.93939 -18.5391,1.96484 -5.6553,6.90153 -4.4144,8.73242 5.9199,8.73242 z m 821.576217,-0.0195 c 11.68503,0.038 18.4921,-9.19744 8.96289,-12.16016 -9.53238,-2.96372 -10.15209,-2.80082 -15.01562,3.92188 -4.92263,6.80438 -3.89282,8.20599 6.05273,8.23828 z m 70.8418,-1.48633 c 0.097,0.004 0.1867,-0.0324 0.26562,-0.11133 0.29272,-0.29272 -0.12122,-2.89891 -0.91992,-5.79101 -0.8091,-2.92996 -1.08935,-8.74516 -0.63086,-13.13282 0.82287,-7.87448 0.82409,-7.87318 -1.99218,-5.33203 -2.38876,2.15537 -2.70972,3.58054 -2.11329,9.39063 0.60394,5.88317 3.93589,14.91164 5.39063,14.97656 z m -412.19922,-1.16016 c 0.22076,3.2e-4 0.40234,-5.65522 0.40234,-12.56835 0,-11.88524 -0.12771,-12.45491 -2.33398,-10.46094 -1.54567,1.39688 -2.33398,4.07927 -2.33398,7.94531 0,4.8777 2.88583,15.08202 4.26562,15.08398 z m -409.709,-0.0547 c 0.1807,-0.0563 0.0193,-0.61807 -0.3672,-1.72071 -0.4708,-1.34331 -0.8554,-7.26758 -0.8554,-13.16406 0,-10.79574 -2.6061,-13.38849 -4.3399,-4.31836 -0.9354,4.89291 1.3754,15.55235 3.8789,17.89258 0.9811,0.91714 1.503,1.36689 1.6836,1.31055 z m 314.21291,-2.61133 c 2.35299,0 16.37467,-17.61113 15.60937,-19.60547 -1.19654,-3.11816 -3.95337,-1.81752 -7.74805,3.6582 -2.05334,2.96296 -5.68226,7.09762 -8.0625,9.1875 -4.21351,3.69951 -4.12241,6.75977 0.20118,6.75977 z m 411.48047,-0.0215 c 1.16232,0.0259 15.75,-17.10878 15.75,-18.5 0,-4.37695 -4.24654,-3.41001 -7.77344,1.76954 -1.70926,2.51017 -5.24685,6.76694 -7.86133,9.45898 -4.46447,4.59692 -4.50588,7.17367 -0.11523,7.27148 z m -822.080077,0 c 2.2929,0.0312 16.2964,-17.61532 15.541,-19.58398 -1.2609,-3.28577 -4.1703,-1.70196 -9.0312,4.91992 -2.6845,3.65697 -6.4616,7.8935 -8.3946,9.41406 -3.489,2.74444 -2.6116,5.1889 1.8848,5.25 z m 600.634757,-0.041 c 6.67478,-0.10965 13.58112,-1.01827 20.5918,-2.76953 5.25712,-1.31322 5.43354,-1.54498 6.82031,-8.92578 1.76392,-9.38802 2.10167,-9.12372 -6.24805,-4.89258 -27.03191,13.6981 -59.86741,6.53156 -75.68945,-16.51953 -4.72983,-6.890872 -4.96454,-7.045312 -5.3789,-3.56641 -0.27318,2.2935 0.90908,5.66534 3.20117,9.12891 11.99403,18.12421 32.86464,27.93651 56.70312,27.54492 z M 244.99459,136.9447 c 7.30706,0.0967 15.0506,-0.73101 23.15039,-2.50976 6.31579,-1.38698 7,-1.88699 7,-5.10352 0,-1.96073 0.5581,-5.51017 1.24024,-7.88867 0.68214,-2.37849 1.04953,-4.32422 0.8164,-4.32422 -0.23315,0 -4.24254,1.77705 -8.9082,3.94922 -27.7104,12.90102 -59.89338,5.43262 -74.92188,-17.38672 -4.2267,-6.417782 -4.2279,-6.418822 -4.6484,-2.45508 -0.3051,2.8756 0.8955,5.75432 4.3691,10.48633 11.9796,16.31943 29.9812,24.94231 51.90235,25.23242 z m 821.74021,-0.084 c 5.329,0.0697 10.9371,-0.33338 16.8243,-1.20899 12.5106,-1.86072 12.6221,-1.942 14.2421,-10.48437 1.641,-8.65248 1.513,-8.82528 -4.1562,-5.58594 -27.2042,15.54414 -64.3169,7.00583 -80.2481,-18.46289 -2.919,-4.666672 -2.9183,-4.666992 -3.3515,-0.88281 -0.2856,2.49421 0.8331,5.6129 3.2832,9.14843 12.4757,18.00243 30.3141,27.17463 53.4062,27.47657 z m -583.91404,-0.25586 c 3.76421,-0.14158 10.3988,-10.31361 7.59571,-12.36328 -3.36343,-2.4594 -4.13801,-2.03314 -9.53711,5.25586 -3.29844,4.45296 -4.06833,6.2871 -2.63867,6.2871 1.11028,0 2.85116,0.3203 3.86914,0.71094 0.2218,0.0851 0.45999,0.11882 0.71093,0.10938 z M 68.174243,136.46617 c 2.3908,-0.023 5.6196,-0.7629 6.6817,-2.00782 5.6455,-6.61732 6.0982,-7.93774 3.6504,-10.64257 -2.2544,-2.49104 -7.3747,1.97008 -12.9746,11.30273 -0.5702,0.95015 0.783,1.36554 2.6425,1.34766 z m 822.476597,-0.0312 c 6.39448,-0.0243 14.38974,-9.29969 10.48047,-12.15821 -3.497,-2.55707 -3.41509,-2.60285 -9.48828,5.17383 -5.46663,7 -5.46606,7.0014 -0.99219,6.98438 z m -504.16797,-0.91016 c 23.37779,0.0727 50.39503,-8.61907 72.86329,-23.87695 4.32635,-2.93798 7.64328,-5.75948 7.37109,-6.26953 -0.27219,-0.51005 -0.87052,-1.98271 -1.33008,-3.27344 -0.74511,-2.09268 -2.10281,-1.70715 -12.53906,3.55664 -6.43685,3.24659 -16.20313,7.68247 -21.70313,9.85742 -15.65091,6.18905 -28.38049,8.51846 -44.17773,8.08594 -11.97023,-0.32773 -23.27081,1.03997 -31.82227,3.85156 -3.37383,1.10927 8.05804,5.43859 18.77735,7.11133 4.02763,0.6285 8.23133,0.94356 12.56054,0.95703 z m 409.50391,-0.0586 c 30.16388,0.54161 84.21855,-20.85929 80.99805,-32.68165 -1.02994,-3.780932 -0.26958,-3.929392 -11.57031,2.26368 -23.18505,12.70593 -47.95326,19.57843 -65.97461,18.30664 -10.53204,-0.74325 -24.08984,1.06855 -32.96289,4.40625 -4.15673,1.56358 13.87494,6.69188 26.66796,7.58398 0.92059,0.0642 1.86877,0.10362 2.8418,0.1211 z M 51.621543,130.76699 c 0.8002,0.16954 2.8266,-1.71479 7.6074,-6.64258 7.068,-7.28505 8.8908,-11.00586 5.3907,-11.00586 -0.5686,0 -3.8325,2.95656 -7.254,6.57031 -3.7391,3.94911 -6.2205,7.80506 -6.2187,9.66602 0,0.83281 0.1109,1.33504 0.4746,1.41211 z m 411.291017,-0.041 c 1.08873,-0.20269 4.5109,-3.15316 8.25586,-7.1875 5.22001,-5.62334 7.26552,-8.71138 6.21289,-9.38086 -2.24879,-1.43027 -1.96857,-1.60394 -8.26562,5.0625 -6.16096,6.52236 -7.78762,9.37128 -6.52149,11.41992 0.0544,0.0881 0.16283,0.1149 0.31836,0.0859 z m 411.4082,-0.57031 c 0.75775,0.0821 2.66456,-1.77445 7.38086,-6.51563 6.84642,-6.88249 7.52214,-7.99741 5.85547,-9.66406 -1.33989,-1.33991 -13.68253,11.38591 -13.71679,14.14258 -0.0154,1.24161 0.0258,1.98788 0.48046,2.03711 z m -220.72265,-6.32617 c 12.73104,-0.11935 25.24874,-3.3229 33.2168,-9.70703 5.51287,-4.41699 -9.48829,-8.60374 -17.66993,-4.93164 -4.4,1.97481 -11.93843,4.56727 -16.75195,5.75976 -13.7428,3.40461 -27.06977,1.96646 -37.24805,-4.01953 -2.7564,-1.62108 -2.64166,-1.35074 0.66602,1.56836 8.65668,7.63969 23.35859,11.46533 37.78711,11.33008 z m 409.07029,-0.0449 c 12.2022,0.009 24.5211,-2.90989 33.6309,-8.86718 7.8207,-5.11431 -6.7781,-10.14775 -16.3887,-5.65039 -4.5523,2.13028 -12.9295,4.88333 -18.6152,6.11718 -11.8481,2.57112 -23.2674,1.39103 -33.211,-3.43359 -5.6056,-2.71988 -5.6074,-2.71984 -1.6074,0.67774 8.6825,7.37478 22.3623,11.14595 36.1914,11.15624 z M 240.686,123.63618 c 10.21246,-0.0887 20.62759,-2.02251 28.79102,-5.98438 8.32145,-4.03856 8.44668,-4.54826 2.12109,-8.74609 -4.88068,-3.23895 -4.88104,-3.23768 -16.0918,1.26367 -6.16593,2.47575 -15.1553,5.15455 -19.97461,5.95313 -9.55706,1.58366 -21.28356,-0.0187 -28.99996,-3.9629 -4.0294,-2.05964 -4.0392,-2.05676 -1.6504,0.625 6.3874,7.17071 20.8788,10.98117 35.80466,10.85157 z m 149.16406,-3.95117 c 1.83667,-0.0231 4.46094,-0.13966 7.96094,-0.29493 24.16368,-1.07197 66.66601,-17.90671 66.66602,-26.406252 0,-2.2481 -0.45,-3.88106 -1,-3.6289 -0.55,0.25218 -8.49936,4.17921 -17.66602,8.72851 -16.65727,8.266802 -32.85994,13.701182 -40.85352,13.701172 -2.33222,0 -8.04419,1.85084 -12.69336,4.11329 -6.33979,3.08516 -7.92407,3.8563 -2.41406,3.78711 z m 408.69531,-0.0664 c 1.82034,0.0344 4.99582,-0.0806 9.95313,-0.28125 23.05615,-0.93305 66.64648,-17.65468 66.64648,-25.566412 0,-4.42363 -0.35341,-4.34795 -15.58593,3.33203 -15.93525,8.034312 -30.46334,13.130112 -40.38477,14.164072 -6.86646,0.71558 -9.05876,1.43051 -20.39648,6.65625 -2.53382,1.16787 -3.26631,1.638 -0.23243,1.69531 z m 248.62503,-6.76758 c 13.6307,-0.058 37.3066,-6.1758 37.3066,-9.97851 0,-0.91149 -7.2829,-7.019132 -8,-6.708992 -0.3666,0.15858 -5.435,2.68775 -11.2637,5.621092 -10.5792,5.32414 -10.6245,5.33399 -26.3652,5.33399 -18.6067,0 -14.1756,4.36887 5.7402,5.66016 0.8095,0.0525 1.6734,0.0761 2.5821,0.0723 z m -410.08401,-0.12695 c 18.83023,-0.2316 40.19172,-6.65694 32.91992,-13.154302 -4.78848,-4.27849 -5.90112,-4.54917 -8.05078,-1.95898 -4.90088,5.905202 -17.75972,9.507812 -33.94336,9.507812 -15.79985,0 -15.79985,-6.6e-4 -10,2.66601 4.72615,2.17299 11.70587,3.03008 19.07422,2.93946 z m -410.38085,-0.15039 c 19.13004,-0.082 40.23777,-6.37902 32.26952,-12.988282 -5.44638,-4.5175 -4.32798,-4.46416 -10.19336,-0.47852 -9.43687,6.412522 -20.56816,9.092962 -34.82616,8.386722 -12.8105,-0.63454 -12.8119,-0.63422 -6.9395,1.96875 5.0194,2.22483 12.2038,3.14342 19.6895,3.11133 z m 187.08983,-4.98438 c 10.3427,-0.58668 50.09935,-19.827912 52.68555,-26.017582 1.02393,-2.4506 3.54183,-6.03773 5.5957,-7.97265 4.94838,-4.66184 4.596,-4.481 -32.15429,16.60351 -16.07273,9.22131 -28.57697,16.982172 -27.78516,17.246102 0.40832,0.1361 0.96869,0.17973 1.6582,0.14062 z m 409.31836,-0.082 c 1.10307,0.11495 4.54297,-0.7696 10.22461,-2.48828 18.06125,-5.463472 41.50062,-18.075482 44.49219,-23.939452 1.45735,-2.85665 3.99907,-6.48225 5.64844,-8.0586 3.16096,-3.02101 -4.76929,0.97068 -20.63477,10.38672 -4.19888,2.492 -15.59952,8.99521 -25.33398,14.45117 -11.58319,6.492152 -16.23493,9.456852 -14.39649,9.648442 z m -605.57619,-1.07812 c 4.4248,-0.081 14.89582,-2.54494 21.95705,-5.96094 11.87965,-5.747022 12.71167,-6.713352 9.09375,-10.564452 -3.03876,-3.2346 -3.03878,-3.23533 -8.96093,1.28515 -3.25718,2.48626 -8.29877,5.23139 -11.20317,6.10156 -2.9043,0.87016 -5.2793,2.07409 -5.2793,2.67383 0,0.599732 -2.25,2.278702 -5,3.730472 -3.7404,1.97464 -3.2622,2.78299 -0.6074,2.73438 z m 822.14256,-0.14649 c 1.7965,0.11802 5.3066,-0.45623 10.5586,-1.82422 16.6414,-4.33452 24.9114,-10.241002 20.6055,-14.714842 -2.9044,-3.01768 -2.9051,-3.01775 -7.0254,0.125 -2.2662,1.7285 -7.3941,4.71091 -11.3965,6.62695 -12.3505,5.912482 -16.6944,9.527462 -12.7422,9.787112 z m -409.70504,-0.36523 c 0.63916,0.037 1.46985,-0.006 2.50196,-0.14063 16.33687,-2.13238 33.08269,-11.461112 27.82812,-15.501952 -3.99678,-3.07359 -3.8366,-3.08408 -8.86133,0.62305 -2.32064,1.71212 -6.78729,4.24658 -9.92578,5.63281 -11.09338,4.899762 -16.01707,9.128042 -11.54297,9.386722 z m 297.97852,-4.33985 c 4.42639,0.0572 10.0364,-1.11204 15.45312,-3.990232 3.0792,-1.63615 6.70689,-2.22443 12.05274,-1.95117 7.01515,0.35856 7.98666,0.0505 11.76367,-3.72657 7.71611,-7.7161 1.47644,-12.3473 -9.25781,-6.87109 -9.62061,4.90807 -22.82032,1.84888 -22.82032,-5.28906 0,-1.87432 -24.259,10.77155 -25.00586,13.03515 -1.07036,3.24415 3.50544,3.14859 8.55469,-0.17773 5.05902,-3.33274 15.11719,-8.00055 15.11719,-7.01562 0,0.27984 -3.91414,2.79647 -8.69727,5.59375 -9.7495,5.70172 -5.61054,10.283432 2.83985,10.392572 z m -820.32614,-0.77539 c 6.0857,-0.0468 12.1843,-1.634202 15.3672,-4.171872 1.0592,-0.84447 5.4494,-1.2892 10.2753,-1.04102 9.561,0.49168 15.8207,-3.47821 14.9629,-9.48633 -0.5799,-4.06136 -4.1269,-4.3938 -11.7754,-1.10351 -10.0283,4.31404 -20.2037,3.04492 -22.0429,-2.75 -1.07,-3.37135 -3.4043,-3.10817 -12.3125,1.38867 -10.497597,5.29915 -13.988797,8.31002 -12.906297,11.13086 0.7834,2.04158 1.5281,1.84885 6.7617,-1.75195 6.193897,-4.26157 15.096497,-8.43478 16.021497,-7.50977 0.3005,0.30048 -2.9848,2.43003 -7.3008,4.73047 -13.269897,7.07278 -13.486897,8.90276 -1.2265,10.343752 1.367,0.16066 2.7714,0.2315 4.1758,0.2207 z m 408.62301,-0.2207 c 6.28509,-0.10653 13.42529,-1.175852 15.80664,-2.929692 3.09024,-2.27592 5.16953,-2.66424 11.75391,-2.18945 6.46108,0.46589 8.51417,0.10453 10.66992,-1.88281 9.99839,-9.21753 5.43325,-14.36949 -7.52344,-8.49024 -8.66211,3.93053 -15.18815,3.5477 -19.56445,-1.14648 -4.34094,-4.6562 -4.43162,-4.67417 -10.60742,-2.09375 -6.6406,2.77462 -17.64063,9.91361 -17.64063,11.44922 0,2.32752 4.09739,2.81187 6.38282,0.7539 3.25591,-2.93187 16.34046,-9.32164 17.24218,-8.41992 0.41596,0.41596 -0.37928,1.16855 -1.76757,1.67188 -6.29998,2.28411 -16.66132,10.20977 -15.22461,11.64648 1.21243,1.212442 5.58425,1.713722 10.47265,1.630862 z m 634.50395,-3.472662 c -69.4107,0.0485 -109.5649,-60.56891 -61.9258,-93.4824195 4.3167,-2.98236001 4.3169,-2.98090001 1.4805,0.25586 -1.5601,1.78021 -4.474,5.03633 -6.4747,7.2363295 -50.9319,56.00568 55.2652,107.581052 136.9434,66.50781 9.6788,-4.86715 10.3672,-5.09125 10.3672,-3.37695 0,7.51536 -53.8943,22.84083 -80.3906,22.85937 z m -102.5059,-1.10351 c 1.733,-0.0416 5.1778,-1.90457 11.2285,-5.77735 7.1126,-4.55243 7.1641,-4.6633 4.1758,-8.92968 -2.1574,-3.0802 -2.1574,-3.08104 -7,1.51172 -2.6634,2.52601 -5.8163,4.93235 -7.0078,5.3457 -1.1916,0.41336 -2.4289,2.54063 -2.75,4.72851 -0.3057,2.08297 0.01,3.15341 1.3535,3.1211 z m -410.58594,-0.22461 c 2.51075,-0.005 10.21119,-4.44081 14.40625,-8.29688 2.74751,-2.52546 2.79742,-2.88543 0.80274,-5.92968 -2.12336,-3.24067 -2.12504,-3.24112 -6.25977,0.66796 -2.27411,2.15 -5.41044,4.56222 -6.9707,5.36133 -3.57791,1.83246 -5.11585,8.20455 -1.97852,8.19727 z m -411.28122,-0.52734 c 1.041,0.0475 2.4801,-0.311 4.2715,-1.21876 11.26765,-5.70975 13.42115,-8.02042 11.25582,-12.0664 -1.83887,-3.43593 -1.83872,-3.43465 -6,0.1914 -2.28869,1.99434 -5.46892,4.525 -7.06832,5.625 -5.139,3.53449 -5.5821,7.32618 -2.459,7.46876 z M 86.352043,89.925278 c 0.5417,0.0654 1.6262,-0.65767 3.7929,-2.10352 2.3833,-1.59044 8.3583,-4.79926 13.279297,-7.13085 7.2737,-3.44632 9.2259,-5.05127 10.4375,-8.57618 1.4115,-4.10669 1.6416,-4.22874 4.3497,-2.33203 4.1411,2.90059 9.5098,2.46048 13.83,-1.13281 2.0765,-1.72716 6.3617,-3.4723 9.541,-3.88672 5.568,-0.72583 9.4274,-3.69146 9.5196,-7.3125 0.069,-2.71564 -5.2935,-1.93746 -19.3614,2.80664 -24.1806,8.15437 -45.929597,20.95848 -45.929597,27.04102 0,1.70729 -7e-4,2.56159 0.541,2.62695 z m 411.498017,-0.4082 c 0.5998,0.0606 3.02722,-1.22522 5.8711,-3.14453 3.25014,-2.19349 9.20466,-5.4453 13.23242,-7.22657 5.40956,-2.39236 7.43713,-4.03743 7.75781,-6.29883 0.45488,-3.20785 1.35308,-3.34945 10.18945,-1.60546 3.59301,0.70912 5.09297,0.24827 8,-2.45704 2.17604,-2.02503 5.78279,-3.60563 9.20703,-4.0332 5.95493,-0.74358 9.70313,-3.39767 9.70313,-6.87109 0,-3.21026 -4.58827,-2.59322 -19.94727,2.68164 -22.52073,7.73445 -45.58995,20.93528 -44.69921,25.57812 0.24391,1.27134 0.48882,2.74043 0.54492,3.26563 0.007,0.0657 0.0549,0.10267 0.14062,0.11133 z m 411.21485,-0.0508 c 0.75366,0.0983 2.47461,-0.99851 6.41211,-3.50586 3.85,-2.45162 9.76812,-5.67351 13.15039,-7.16016 4.51253,-1.98346 6.39212,-3.66887 7.06054,-6.33203 0.7541,-3.0046 1.41604,-3.47 3.84961,-2.69922 7.89144,2.49938 10.20329,2.31045 14.3418,-1.17188 2.57258,-2.1647 5.74948,-3.47851 8.4043,-3.47851 5.24996,0 10.19335,-3.27001 10.19336,-6.74219 0,-3.59768 -2.34283,-3.33794 -19.5293,2.16797 -22.38784,7.17225 -44.4707,20.393 -44.4707,26.625 0,1.4214 0.002,2.22041 0.58789,2.29688 z m -683.58787,-1.74219 c 2.8511,-0.17266 12.41297,-11.51843 11.56638,-13.72461 -0.77837,-2.0284 -1.25143,-1.79175 -3.36133,1.67773 -1.35018,2.22018 -3.97395,4.41698 -5.83005,4.88282 -3.1162,0.78213 -5.2905,7.34064 -2.375,7.16406 z m 822.73626,-0.74219 c 0.9436,-0.0324 2.5816,-1.46175 6.1602,-4.89062 3.5093,-3.36245 5.984,-6.75673 5.4981,-7.54297 -1.3005,-2.10417 -1.8932,-1.83228 -5.5977,2.57031 -1.8512,2.2 -4.5126,4 -5.9141,4 -2.7353,0 -2.9128,0.59172 -1.3632,4.54297 0.3356,0.85579 0.6506,1.33973 1.2167,1.32031 z m -410.70894,-0.88867 c 2.25538,0.0454 10.97266,-8.37612 10.97266,-10.72852 0,-3.63778 -1.83035,-3.46808 -4.17579,0.38868 -1.32432,2.17769 -3.95684,4.34916 -5.84961,4.82421 -3.447,0.86513 -4.19865,4.4676 -1.14453,5.48438 0.0588,0.0196 0.12451,0.0298 0.19727,0.0312 z m 271.30078,-5.4043 c 0.38442,0.0372 1.2769,-0.53134 2.67188,-1.76953 4.30164,-3.81817 15.18422,-10.4336 23.42578,-14.24219 3.98929,-1.84353 6.3207,-3.58315 5.33203,-3.97851 -4.28524,-1.71363 -12.27177,-0.69589 -18.13477,2.3125 -8.43957,4.33045 -12.11658,7.40159 -9.94531,8.30469 1.23933,0.5155 0.97875,1.67617 -1,4.45507 -2.21697,3.11345 -2.99031,4.85591 -2.34961,4.91797 z m 257.89846,-0.53711 c -20.3812,0.1597 -40.7813,-4.34548 -56.4961,-12.02343 -13.2137,-4.99013 -22.504,-12.67778 -25.668,-22.4336 -4.8649,-9.72595 -3.9748,-20.87114 5.4317,-32.57617 8.5724,-10.6672395 13.7166,-13.30464951 9.1992,-4.7167995 -24.2052,46.0147895 31.0924,65.4499795 110.4531,38.8203095 14.4507,-4.84898 21.5215,-6.66694 21.5215,-5.5332 0,1.98264 -39.8286,15.6749 -54.541,18.75 -50.159,10.4839 -87.4534,-5.50696 -85.209,-36.53515 0.6675,-9.22834 0.1445,-9.29902 -4.2149,-0.57032 -4.13,8.26965 -4.7738,15.78392 -2.6406,22.36133 4.4436,8.88345 13.6894,16.5811 25.668,22.4336 26.6402,10.06058 69.1758,9.17107 109.3574,-7.7754 9.0443,-3.8144 13.7882,-4.93207 11.4688,-2.70117 -16.2468,15.62644 -40.2731,22.31151 -64.3301,22.5 z M 498.311,79.425258 c 0.64225,0.0143 3.09989,-1.6069 8.44336,-5.22461 3.0851,-2.08872 9.85148,-5.83126 15.03711,-8.31641 9.14325,-4.38177 9.31673,-4.55588 5.75781,-5.74218 -5.40633,-1.80211 -12.43978,-0.0424 -20.84766,5.21679 -5.22478,3.26812 -7.03215,5.08308 -6.04687,6.06836 0.9853,0.9853 0.66984,2.53014 -1.05273,5.16407 -1.19226,1.82304 -1.79055,2.8229 -1.29102,2.83398 z M 87.607843,79.011198 c 0.797,0.0187 2.82,-1.04694 5.752,-3.20313 2.9479,-2.1679 9.975697,-6.30141 15.619097,-9.1875 10.5262,-5.38312 10.7856,-6.54923 1.4981,-6.72656 -3.8767,-0.074 -7.5171,1.20938 -13.332097,4.70117 -9.8458,5.91207 -9.6729,5.74451 -7.3476,7.18164 1.6093,0.99461 1.5175,1.61124 -0.5859,3.93555 -1.9718,2.1787 -2.4006,3.28013 -1.6036,3.29883 z m 652.957067,-4.43946 c 17.69649,-0.0351 37.23504,-3.11485 56.58007,-9.88476 5.13333,-1.79644 20.73268,-8.33016 34.66602,-14.51758 13.93333,-6.18742 33.85989,-14.73025 44.28125,-18.98437 18.94793,-7.73475 18.94897,-7.73332 16.9668,-11.56641 -2.26959,-4.3889 -2.76309,-4.51146 -8.04297,-1.97461 -8.58359,4.1242 -71.38024,28.00876 -89.66602,34.10352 -68.46742,22.8206 -116.91637,11.12805 -114.5332,-27.64063 0.66543,-10.82485 -0.42988,-10.48299 -5.88086,1.83984 -12.79145,28.9172 20.40453,48.71462 65.62891,48.625 z M 77.703543,71.091278 c 5.3971,0.10038 11.3203,-2.87379 18.1075,-9.03711 1.8833,-1.71018 -8.869,0.16657 -19.2735,3.36328 -8.6079,2.64466 -8.6089,2.64358 -4.0683,4.55273 1.6945,0.71249 3.4353,1.08763 5.2343,1.1211 z m 823.126987,-0.39258 c 3.08153,0.17437 6.48643,-1.19037 11.65039,-4.66797 8.91911,-6.00648 6.60565,-6.3543 -10.07812,-1.51953 -14.73177,4.26911 -16.87006,5.41238 -10.68164,5.71093 2.6166,0.12628 6.71497,0.34106 9.10937,0.47657 z m -412.0957,-0.0664 c 5.84462,0.0766 7.54681,-0.91834 12.89843,-4.59961 8.14422,-5.60223 6.74374,-6.07402 -7.15624,-2.40625 -15.55381,4.10416 -19.76353,6.20999 -13.25586,6.63086 3.15685,0.20416 5.56546,0.34948 7.51367,0.375 z m 118.62304,-15.52148 c -0.39647,-0.0304 0.87833,-2.97875 3.83985,-8.47266 4.95144,-9.1854 7.8968,-12.61133 17.74023,-20.62891 10.13102,-8.25183 12.17368,-7.98096 2.93164,0.38868 -9.81284,8.88655 -15.5641,15.40928 -20.55859,23.31445 -2.32513,3.68017 -3.64476,5.42211 -3.95313,5.39844 z m 411.22463,-0.0508 c -0.4264,0.21535 0,-1.07777 1.0703,-3.68555 4.0348,-9.81144 13.2507,-20.88645 23.0645,-27.71289 5.6349,-3.91968 10.0219,-5.47556 5.0937,-1.80664 -6.1872,4.60631 -18.3279,17.55991 -22.9414,24.47851 -3.7863,5.67814 -5.7389,8.44968 -6.2871,8.72657 z m -821.86716,-0.34571 c -0.1258,0.0275 -0.1936,-0.0574 -0.1954,-0.26367 -0.054,-6.41162 16.621,-26.75956 26.6739,-32.54883 2.9658,-1.70794 0.694,1.15321 -6.8809,8.66602 -6.2201,6.16915 -13.2145,14.51745 -15.543,18.55078 -1.8919,3.27708 -3.5096,5.47637 -4.0546,5.5957 z m 399.12105,-1.89843 c -0.28165,-0.0739 0.44794,-1.64641 2.1582,-4.69141 5.17759,-9.21825 10.11165,-15.63061 16.92969,-22.00586 7.00454,-6.54964 10.71298,-8.60817 6.00781,-3.33399 -1.47199,1.65001 -4.30992,4.80001 -6.30859,7 -1.99867,2.2 -6.93318,8.34936 -10.96484,13.66602 -4.83755,6.37943 -7.41062,9.47331 -7.82227,9.36524 z m -410.48635,-0.58399 c -0.33,0.0209 0.5621,-1.83827 2.461,-5.40039 2.0389,-3.82477 6.1625,-9.82542 9.164,-13.33398 6.419,-7.50354 16.5271,-16.72622 14.7051,-13.41797 -0.6948,1.26171 -3.7001,4.86171 -6.6777,8 -2.9775,3.13831 -8.3159,9.60443 -11.8614,14.37109 -4.9227,6.61829 -7.3667,9.75445 -7.791,9.78125 z m 822.02156,-0.41016 c -0.4335,-0.0571 0.8291,-2.51179 3.9492,-7.43164 6.0584,-9.55313 12.7763,-17.42479 19.0195,-22.28125 5.4706,-4.25552 5.4718,-4.25576 -0.8652,3.04297 -3.4854,4.01431 -9.936,11.98639 -14.334,17.71485 -4.609,6.00331 -7.2783,9.01977 -7.7695,8.95507 z m -832.20516,-2.74414 c -0.2269,0.0342 -0.4577,-0.0369 -0.666,-0.23047 -1.5666,-1.45581 10.4777,-17.4596 18.2715,-24.27734 9.7716,-8.54798 10.7171,-7.63656 1.6074,1.54883 -8.1555,8.22325 -17.2717,19.18692 -18.2617,21.96289 -0.2088,0.5853 -0.573,0.93909 -0.9512,0.99609 z m 821.90237,-0.6582 c -0.72153,0.17223 -0.009,-2.05892 2.51172,-6.35937 4.61587,-7.8764 23.56447,-26.59426 23.56447,-23.27735 0,0.23364 -4.0977,4.61235 -9.1055,9.73047 -5.0077,5.11811 -10.7951,11.86013 -12.8613,14.98242 -2.11904,3.20205 -3.5482,4.78987 -4.10939,4.92383 z m -410.51758,-1.38477 c -0.16247,-0.0833 0.61073,-1.58398 2.16016,-4.58398 3.38109,-6.54641 15.79304,-19.85073 21.10352,-22.62305 1.90454,-0.99426 -0.68056,2.47755 -6.03711,8.10938 -5.15176,5.41652 -11.34634,12.24831 -13.76563,15.18164 -2.19935,2.66666 -3.29846,3.99935 -3.46094,3.91601 z m -421.43359,-0.99414 c -0.3586,0.0234 -0.1167,-0.79186 0.6211,-2.73242 3.8285,-10.0696 9.1359,-17.84904 15.2168,-22.30468 4.1892,-3.0695 4.1881,-3.06857 0.5,1.52343 -6.3366,7.88948 -12.9785,17.82265 -12.9785,19.41016 0,0.83665 -0.9176,2.2845 -2.041,3.2168 -0.6716,0.55739 -1.1032,0.87267 -1.3184,0.88671 z m 412.00781,-1.23437 c -0.20488,0.002 -0.17444,-0.57273 0.0527,-1.6875 0.79487,-3.90049 5.51154,-12.65521 8.98047,-16.66797 3.16627,-3.66265 8.98632,-8.47766 8.98632,-7.43555 0,0.56529 -2.46269,3.8199 -5.47265,7.23243 -3.00994,3.41254 -7.23575,9.50377 -9.39063,13.5371 -1.81983,3.40624 -2.81478,5.01745 -3.15625,5.02149 z m 588.20315,-0.0547 c -27.6995,-0.46825 -48.9684,-15.37298 -44.8281,-33.73047 1.8942,-8.3987695 3.4682,-7.7092795 2.8964,1.26953 -1.8528,29.0985 47.4619,36.62865 101.1895,15.45118 4.1022,-1.61693 6.5973,-2.07133 6.2891,-1.14649 -1.276,3.82782 -35.7464,15.09925 -53.3379,17.44141 -4.1642,0.55442 -8.252,0.78173 -12.209,0.71484 z m -177.46487,-0.25195 c -0.1055,-0.026 -0.10268,-0.25651 0.0254,-0.71485 2.45531,-8.78659 11.07194,-21.04686 17.03517,-24.23828 1.6149,-0.86427 0.2381,1.49195 -3.3399,5.7168 -3.34806,3.95344 -8.00886,10.48814 -10.35737,14.52148 -1.7614,3.025 -3.04679,4.79297 -3.36329,4.71485 z m -638.69726,-0.33594 c -34.61662,0.42224 -66.0783,-20.86896 -48.95313,-37.9785095 1.42418,-1.4229 1.57476,-0.72899 0.83985,3.8710895 -5.30995,33.23664 62.33167,39.87312 117.19922,11.5 2.09401,-1.08286 4.14602,-1.62937 4.56054,-1.21484 2.46172,2.46172 -38.97976,18.14715 -58.75,22.23632 -4.94154,1.02208 -9.95125,1.52562 -14.89648,1.58594 z m 402.68359,-0.27148 c -27.80999,-5.8e-4 -45.85185,-10.92928 -42.73633,-31.70508 1.29747,-8.6520495 3.19167,-8.1062295 2.92969,0.84375 -0.96732,33.04768 56.52428,35.93869 122.4336,6.15625 11.42759,-5.16379 7.35347,-1.84908 -5.36719,4.36719 -28.09114,13.72743 -55.62977,20.33834 -77.25977,20.33789 z m 230.56836,-3.35157 c -0.56727,-0.0344 0.11976,-2.70206 2.4668,-7.66992 3.46722,-7.3389 10.12678,-16.20924 10.21094,-13.59961 0.0264,0.81777 -1.06984,2.91907 -2.4375,4.66797 -1.36764,1.74889 -4.10819,6.3896 -6.08985,10.3125 -2.17227,4.30027 -3.64986,6.31946 -4.15039,6.28906 z m -410.61523,-0.0957 c -0.1158,0.002 -0.20619,-0.0737 -0.26367,-0.23633 -0.83583,-2.36522 5.74728,-15.46579 9.58203,-19.06836 1.84633,-1.73454 3.35547,-2.77804 3.35547,-2.32031 0,0.45774 -1.80964,3.51469 -4.02344,6.79492 -2.2138,3.28021 -5.00037,8.25986 -6.19141,11.06641 -0.96772,2.28031 -1.95719,3.75608 -2.45898,3.76367 z m -411.18945,-0.42187 c -0.0593,-0.0229 -0.0906,-0.10079 -0.0918,-0.23829 -0.032,-3.6699 6.2215,-15.29038 10.0449,-18.66601 3.7755,-3.33333 3.7765,-3.33399 1.2227,0.66601 -1.4045,2.2 -4.5109,7.6 -6.9024,12 -2.0926,3.85 -3.8583,6.39825 -4.2734,6.23829 z m -6.9688,-8.04493 c -0.1336,-0.0152 -0.2496,-0.16367 -0.4218,-0.33593 -0.9501,-0.95015 4.3356,-11.85743 5.7461,-11.85743 0.7083,0 -0.0121,2.54936 -1.6016,5.66602 -2.7568,5.40713 -3.3219,6.57303 -3.7227,6.52734 z m 821.71489,-0.61718 c -0.10575,0.0198 -0.16538,-0.0542 -0.16797,-0.24219 -0.0356,-2.58336 4.54547,-11.33399 5.93359,-11.33399 0.37746,0 0.68054,0.15066 0.67383,0.33399 -0.0724,1.97949 -5.41727,11.05099 -6.43945,11.24219 z m -410.49805,-0.82813 c -0.0765,0.006 -0.13159,-0.0344 -0.16211,-0.12305 -0.63007,-1.82968 4.13396,-11.05044 6.00781,-11.6289 0.85948,-0.26531 -0.0405,2.53347 -2,6.21875 -1.71454,3.22461 -3.31026,5.49169 -3.8457,5.5332 z m -223.03516,-2.04297 c -21.22076,0.0633 -34.63736,-7.32625 -28.82617,-21.2343695 1.9772,-4.73212 4.6165,-7.01261001 2.85938,-2.47071 -9.02725,23.3341395 32.59733,27.5432795 82.28515,8.3203195 15.89384,-6.1489195 16.79761,-5.5693995 1.98633,1.27344 -20.57389,9.50516 -41.79964,14.06209 -58.30469,14.11132 z m 825.47458,-0.25 c -24.5961,0.17823 -41.7756,-8.61411 -31.6191,-22.5038995 1.6757,-2.29166 1.7965,-1.89937 1.1582,3.76367 -2.2443,19.9115895 46.7184,21.0083895 87.3555,1.9570295 3.1448,-1.4743595 6.0514,-2.3470295 6.459,-1.9394495 0.7545,0.7545195 -9.5076,5.7777795 -21.461,10.5038995 -14.0912,5.57137 -29.0088,8.1254 -41.8926,8.21875 z m -415.98434,-0.39258 c -10.65161,-0.0699 -19.43381,-1.72971 -23.82031,-5.33984 -6.01444,-4.94994 -6.21324,-15.7664195 -0.35547,-19.3867195 1.20681,-0.74586 1.19255,-0.22467 -0.0586,2.11328 C 714.78415,28.213478 763.32531,32.032778 811.96334,11.911568 820.33078,8.4500085 823.92709,7.4084285 821.811,9.0619585 807.22556,20.459098 774.7504,28.000858 751.31686,27.847108 Z M 1.1977429,26.450586 c -2.8218,0 0.3582,-2.73228 5.6074,-4.81836 8.6161001,-3.42416 9.3143001,-3.61212 7.0059001,-1.89648 -2.4756,1.8399 -11.6337001,6.71484 -12.6133001,6.71484 z M 1166.5005,17.321676 c -7.6565,-0.0891 -13.9762,-1.68121 -17.1485,-4.85351 -2.3877,-2.38772 -3.0545,-10.0175795 -0.875,-10.0175795 0.7334,0 1.334,1.72768 1.334,3.83789 0,9.9983495 26.5257,11.1012595 49.5898,2.0625 10.2886,-4.03206 9.9011,-2.70364 -0.5898,2.0234395 -10.4138,4.69233 -22.4666,7.06186 -32.3105,6.94726 z m -819.14653,-0.0996 c -15.09145,0.15224 -25.8306,-5.48674 -21.8418,-13.7597595 1.39217,-2.88745001 1.45643,-2.84230001 1.54297,1.06836 0.27306,12.3414895 32.30942,13.3722595 55.04883,1.77148 2.77208,-1.4142 5.04101,-2.26749 5.04101,-1.89648 0,1.45467 -15.98309,8.6349495 -23.63281,10.6171895 -5.61324,1.45454 -11.12772,2.14847 -16.1582,2.19921 z m 409.65039,-0.0586 c -14.24222,0.0434 -24.11757,-4.85308 -20.59961,-13.6249995 0.68094,-1.69787 1.33846,-2.48724 1.46289,-1.75391 0.44712,2.63498 0.82475,5.37322 1.04883,7.61524 0.64856,6.4891695 27.43836,6.4195695 46.41406,-0.12109 12.702,-4.3782 14.4018,-4.16579 4.14649,0.51757 -10.93965,4.9958695 -22.72799,7.3374995 -32.47266,7.3671895 z"
     id="rect812"
     inkscape:connector-curvature="0" />
</svg>
