<svg
   xmlns:dc="http://purl.org/dc/elements/1.1/"
   xmlns:cc="http://creativecommons.org/ns#"
   xmlns:rdf="http://www.w3.org/1999/02/22-rdf-syntax-ns#"
   xmlns:svg="http://www.w3.org/2000/svg"
   xmlns="http://www.w3.org/2000/svg"
   xmlns:xlink="http://www.w3.org/1999/xlink"
   xmlns:sodipodi="http://sodipodi.sourceforge.net/DTD/sodipodi-0.dtd"
   xmlns:inkscape="http://www.inkscape.org/namespaces/inkscape"
   viewBox="0 0 256 233.879"
   height="234"
   width="256"
   version="1.1"
   id="svg38"
   sodipodi:docname="keybase.svg"
   inkscape:version="0.92.4 5da689c313, 2019-01-14">
  <metadata
     id="metadata42">
    <rdf:RDF>
      <cc:Work
         rdf:about="">
        <dc:format>image/svg+xml</dc:format>
        <dc:type
           rdf:resource="http://purl.org/dc/dcmitype/StillImage" />
      </cc:Work>
    </rdf:RDF>
  </metadata>
  <sodipodi:namedview
     pagecolor="#ffffff"
     bordercolor="#666666"
     borderopacity="1"
     objecttolerance="10"
     gridtolerance="10"
     guidetolerance="10"
     inkscape:pageopacity="0"
     inkscape:pageshadow="2"
     inkscape:window-width="949"
     inkscape:window-height="348"
     id="namedview40"
     showgrid="false"
     inkscape:zoom="1.008547"
     inkscape:cx="118.08475"
     inkscape:cy="156.66102"
     inkscape:window-x="3849"
     inkscape:window-y="355"
     inkscape:window-maximized="0"
     inkscape:current-layer="g36" />
  <defs
     id="defs6">
    <clipPath
       id="A">
      <path
         d="M0 600h600V0H0z"
         id="path2" />
    </clipPath>
    <path
       id="B"
       d="M287.79 242.925c0-3.207-2.6-5.806-5.806-5.806s-5.806 2.6-5.806 5.806 2.6 5.806 5.806 5.806 5.806-2.6 5.806-5.806" />
  </defs>
  <g
     clip-path="url(#A)"
     transform="matrix(1.6 0 0 -1.6 -352 596.9392)"
     id="g36">
    <path
       d="m 263.56359,366.647 c -6,0 -11.01,-4.698 -11.38,-10.696 l -0.53,-8.563 c -0.364,-6.26 4.43,-11.662 10.686,-12.045 l 11.498,-0.71 8.2,6.07 0.607,2.967 c 0.12,0.455 0.25,1.068 0.297,1.818 l 0.524,8.522 c 0.192,3.045 -0.817,5.98 -2.84,8.266 -2.013,2.278 -4.8,3.638 -7.843,3.823 l -8.543,0.53 a 11.7,11.7 0 0 1 -0.675,0.02 m 6.378,-18.62 0.314,5.075 -5.076,0.314 -0.315,-5.076 5.077,-0.313 m -6.378,10.036 a 3.25,3.25 0 0 0 0.17,-0.005 l 8.528,-0.53 a 2.79,2.79 0 0 0 2.634,-2.984 l -0.525,-8.524 c -0.008,-0.132 -0.06,-0.248 -0.086,-0.374 l -3.042,-2.252 -8.38,0.518 c -1.546,0.095 -2.73,1.43 -2.64,2.977 l 0.53,8.53 c 0.092,1.49 1.327,2.642 2.812,2.642"
       id="path12"
       style="fill:#ffffff;fill-opacity:1;stroke:#000000;stroke-opacity:1"
       inkscape:connector-curvature="0" />
    <path
       d="M300 320.962c-33.402 0-60.48-27.078-60.48-60.48a60.19 60.19 0 0 1 10.167-33.569h103.055c5.424 9.907 7.738 21.637 7.738 33.57 0 30.914-27.078 60.48-60.48 60.48"
       fill="#fff"
       id="path14"
       style="fill:none;fill-opacity:1;stroke:none" />
    <g
       fill="#282827"
       id="g22"
       style="fill:#000000;fill-opacity:1;stroke:#ffffff;stroke-opacity:1">
      <path
         d="M300 325.255c-35.716 0-64.773-29.057-64.773-64.773a64.38 64.38 0 0 1 9.396-33.569h10.347a55.89 55.89 0 0 0-11.157 33.569c0 30.982 25.205 56.188 56.187 56.188 14.716 0 28.81-6.16 39.688-17.348 10.486-10.783 16.5-24.94 16.5-38.84 0-9.517-1.572-22.45-8.405-33.57h9.8c4.73 9.52 7.19 20.9 7.19 33.57 0 16.116-6.9 32.454-18.93 44.826-12.508 12.863-28.79 19.947-45.844 19.947"
         id="path16"
         style="fill:none;fill-opacity:1;stroke:#000000;stroke-opacity:1" />
      <use
         xlink:href="#B"
         id="use18"
         style="fill:none;fill-opacity:1;stroke:#030303;stroke-opacity:1" />
      <use
         xlink:href="#B"
         x="36.033"
         id="use20"
         style="fill:none;fill-opacity:1;stroke:#000000;stroke-opacity:1" />
    </g>
    <path
       d="M234.012 245.23l32.228 34.18-7.757-24.32c25.16 18.3 51.575 15.415 70.174 9.953 19.74-5.796 33.562 11.64 20.032 30.238-6.43 8.84-15.248 16.178-25.265 20.63-26.273 11.67-52.688 4.866-70.507-13.134-18.876-19.068-18.905-40.217-18.905-57.547"
       fill="#ff6f21"
       id="path24"
       style="fill:none" />
    <path
       d="m 296.972,317.39 c -3.74,0 -7.456,-0.373 -11.107,-1.124 -11.135,-2.3 -18.37448,-10.47881 -26.79848,-18.98881 -13.993,-14.135 -13.80149,-22.48927 -14.40649,-36.73327 L 276.066,296.086 266.111,264.878 c 18.708,9.78 40.1,11.228 63.755,4.282 7.528,-2.2 14.35,-0.535 17.808,4.37 3.55,5.04 2.633,12.227 -2.456,19.223 -6.08,8.36 -14.44,15.19 -23.537,19.23 -8.068,3.584 -16.45,5.402 -24.71,5.402 m -67.252,-82.97 v 10.8 c 0,17.917 0,40.215 20.146,60.567 9.62,9.717 21.47,16.245 34.27,18.878 13.474,2.772 27.662,1.098 41.032,-4.84 10.453,-4.644 20.04,-12.467 26.994,-22.026 7.243,-9.958 8.213,-21.154 2.53,-29.218 -5.555,-7.885 -16.247,-10.892 -27.245,-7.664 -25.364,7.448 -47.718,4.317 -66.438,-9.306 l -10.6,-7.713 6.005,18.825 z"
       id="path26"
       style="fill:#fefefe;fill-opacity:1;stroke:#000000;stroke-opacity:1"
       inkscape:connector-curvature="0"
       sodipodi:nodetypes="ccccccccccccscccccccccc" />
    <g
       id="g4568"
       transform="translate(-37.72987,-36.07195)"
       style="fill:#ffffff;fill-opacity:1;stroke:#000000;stroke-opacity:1">
      <path
         d="m 317.43487,380.73195 c -3.962,-6.212 -6.744,-11.986 -7.504,-18.094 -1.203,-9.673 3.698,-17.03 13.11,-19.68 8.172,-2.3 16.954,2.105 19.996,10.03 1.65,4.298 1.477,8.947 -0.484,13.09 a 16.48,16.48 0 0 1 -9.794,8.672 c -3.82,1.268 -6.198,1.47 -7.516,1.42 -2.96,-0.116 -5.7,1.262 -7.3,3.7 a 8.59,8.59 0 0 0 -0.509,0.872 m 9.977,-46.963 a 24.66,24.66 0 0 0 -6.697,0.925 c -6.666,1.877 -11.993,5.587 -15.404,10.73 -3.4,5.126 -4.75,11.445 -3.9,18.275 1.5,12.057 8.93,22.33 17.535,34.223 l 1.758,2.433 7.367,-4.335 c -3.636,-7.74 -3.22,-10.607 -3.028,-11.26 2.925,0.09 6.43,-0.534 10.42,-1.858 a 24.99,24.99 0 0 0 14.85,-13.149 c 2.974,-6.284 3.236,-13.33 0.74,-19.84 -3.788,-9.87 -13.446,-16.143 -23.64,-16.143"
         id="path4562"
         style="fill:#ffffff;fill-opacity:1;stroke:#000000;stroke-opacity:1"
         inkscape:connector-curvature="0" />
      <path
         style="fill:#ffffff;fill-opacity:1;stroke:#000000;stroke-width:0.99152541;stroke-opacity:1"
         d="M 161.51336,46.392942 C 147.79289,40.60662 141.59568,28.047786 145.01457,12.957675 c 1.28207,-5.6587143 9.60171,-23.66615 10.93403,-23.66615 0.43548,0 1.03965,0.645951 1.34261,1.4354465 0.8691,2.2648453 5.5923,4.1818014 12.0554,4.8928061 8.8344,0.9718707 14.68827,3.2338673 19.63301,7.5864012 5.87647,5.172679 8.86622,11.6549372 8.90223,19.3014482 0.0883,18.756969 -18.92279,31.242674 -36.36849,23.885315 z"
         id="path4564"
         inkscape:connector-curvature="0"
         transform="matrix(0.625,0,0,-0.625,220,373.12481)" />
    </g>
    <path
       d="M315.44 324.184c-3.82-9.956-14.9-15.515-25.167-12.625-11.566 3.257-17.673 12.552-16.207 24.342 1.46 11.725 9.382 22.005 18.515 34.677-7.502-15.97-1.13-17.465.887-17.385 1.992.08 4.9-.26 9.04-1.634 11.277-3.743 17.238-16.157 12.933-27.375"
       fill="#ff6f21"
       id="path28"
       style="fill:none" />
    <path
       d="m 299.06538,322.035 c -1.7,2.078 -4.216,3.27 -6.9,3.27 -2.044,0 -4.044,-0.712 -5.63,-2.004 a 8.93,8.93 0 0 1 -1.275,-12.547 l 2.35,-2.885 c -1.726,-2.968 -1.54,-6.824 0.758,-9.637 l 0.442,-0.542 c -1.04,-2.74 -0.63,-5.95 1.354,-8.38 l 2.888,-3.538 a 8.46,8.46 0 0 1 6.581,-3.122 c 1.952,0 3.86,0.68 5.372,1.914 l 1.73,1.412 a 8.93,8.93 0 0 1 3.466,-0.697 c 0.674,0 1.35,0.077 2.006,0.23 a 8.95,8.95 0 0 1 3.633,1.781 8.93,8.93 0 0 1 1.267,12.54 l -18.025,22.185 z m -6.9,-3.755 c 0.547,0 1.1,-0.238 1.464,-0.696 l 18.035,-22.196 a 1.89,1.89 0 0 0 -0.269,-2.659 1.88,1.88 0 0 0 -0.769,-0.377 c -0.14,-0.033 -0.283,-0.05 -0.426,-0.05 -0.548,0 -1.09,0.237 -1.465,0.695 l -1.796,2.213 -6.377,-5.205 a 1.46,1.46 0 0 0 -0.93,-0.332 1.47,1.47 0 0 0 -1.14,0.541 l -2.888,3.537 c -0.508,0.622 -0.415,1.538 0.207,2.046 l 6.408,5.23 -2.618,3.228 -3.17,-2.6 c -0.26,-0.21 -0.572,-0.314 -0.882,-0.314 -0.404,0 -0.805,0.175 -1.08,0.512 l -0.66,0.81 c -0.51,0.623 -0.417,1.54 0.206,2.05 l 3.133,2.558 -6.447,7.913 a 1.89,1.89 0 0 0 1.465,3.085"
       id="path34"
       style="fill:#ffffff;fill-opacity:1;stroke:#000000;stroke-opacity:1"
       inkscape:connector-curvature="0" />
  </g>
</svg>
